<?xml version="1.0" encoding="UTF-8" standalone="no"?>
<!DOCTYPE svg PUBLIC "-//W3C//DTD SVG 1.1//EN"
 "http://www.w3.org/Graphics/SVG/1.1/DTD/svg11.dtd">
<!-- Generated by graphviz version 8.0.5 (20230430.1635)
 -->
<!-- Title: Schema Diagram Pages: 1 -->
<svg width="1220pt" height="655pt"
 viewBox="0.00 0.00 1220.00 655.00" xmlns="http://www.w3.org/2000/svg" xmlns:xlink="http://www.w3.org/1999/xlink">
<g id="graph0" class="graph" transform="scale(1 1) rotate(0) translate(4 651)">
<title>Schema Diagram</title>
<polygon fill="white" stroke="none" points="-4,4 -4,-651 1216,-651 1216,4 -4,4"/>

<!-- _sqlx_migrations_c8bfe31 -->
<g id="node1" class="node">
<title>_sqlx_migrations_c8bfe31</title>
<polygon fill="#e9c2f2" stroke="none" points="871,-183 871,-204 1055,-204 1055,-183 871,-183"/>
<text text-anchor="start" x="872.62" y="-189.7" font-family="Helvetica,sans-Serif" font-weight="bold" font-style="italic" font-size="14.00">public._sqlx_migrations</text>
<polygon fill="#e9c2f2" stroke="none" points="1055,-183 1055,-204 1203,-204 1203,-183 1055,-183"/>
<text text-anchor="start" x="1156" y="-188.7" font-family="Helvetica,sans-Serif" font-size="14.00">[table]</text>
<text text-anchor="start" x="873" y="-168.7" font-family="Helvetica,sans-Serif" font-weight="bold" font-style="italic" font-size="14.00">version</text>
<text text-anchor="start" x="1015" y="-167.7" font-family="Helvetica,sans-Serif" font-size="14.00"> </text>
<text text-anchor="start" x="1057" y="-167.7" font-family="Helvetica,sans-Serif" font-size="14.00">int8 not null</text>
<text text-anchor="start" x="873" y="-146.7" font-family="Helvetica,sans-Serif" font-size="14.00">description</text>
<text text-anchor="start" x="1015" y="-146.7" font-family="Helvetica,sans-Serif" font-size="14.00"> </text>
<text text-anchor="start" x="1057" y="-146.7" font-family="Helvetica,sans-Serif" font-size="14.00">text not null</text>
<text text-anchor="start" x="873" y="-125.7" font-family="Helvetica,sans-Serif" font-size="14.00">installed_on</text>
<text text-anchor="start" x="1015" y="-125.7" font-family="Helvetica,sans-Serif" font-size="14.00"> </text>
<text text-anchor="start" x="1057" y="-125.7" font-family="Helvetica,sans-Serif" font-size="14.00">timestamptz not null</text>
<text text-anchor="start" x="873" y="-104.7" font-family="Helvetica,sans-Serif" font-size="14.00">success</text>
<text text-anchor="start" x="1015" y="-104.7" font-family="Helvetica,sans-Serif" font-size="14.00"> </text>
<text text-anchor="start" x="1057" y="-104.7" font-family="Helvetica,sans-Serif" font-size="14.00">bool not null</text>
<text text-anchor="start" x="873" y="-83.7" font-family="Helvetica,sans-Serif" font-size="14.00">checksum</text>
<text text-anchor="start" x="1015" y="-83.7" font-family="Helvetica,sans-Serif" font-size="14.00"> </text>
<text text-anchor="start" x="1057" y="-83.7" font-family="Helvetica,sans-Serif" font-size="14.00">bytea not null</text>
<text text-anchor="start" x="873" y="-62.7" font-family="Helvetica,sans-Serif" font-size="14.00">execution_time</text>
<text text-anchor="start" x="1015" y="-62.7" font-family="Helvetica,sans-Serif" font-size="14.00"> </text>
<text text-anchor="start" x="1057" y="-62.7" font-family="Helvetica,sans-Serif" font-size="14.00">int8 not null</text>
<polygon fill="none" stroke="#888888" points="870,-56 870,-205 1204,-205 1204,-56 870,-56"/>
</g>
<!-- competitors_b0aeb7bd -->
<g id="node2" class="node">
<title>competitors_b0aeb7bd</title>
<polygon fill="#e9c2f2" stroke="none" points="891,-428.5 891,-449.5 1041,-449.5 1041,-428.5 891,-428.5"/>
<text text-anchor="start" x="892.88" y="-435.2" font-family="Helvetica,sans-Serif" font-weight="bold" font-style="italic" font-size="14.00">public.competitors</text>
<polygon fill="#e9c2f2" stroke="none" points="1041,-428.5 1041,-449.5 1183,-449.5 1183,-428.5 1041,-428.5"/>
<text text-anchor="start" x="1136" y="-434.2" font-family="Helvetica,sans-Serif" font-size="14.00">[table]</text>
<text text-anchor="start" x="893" y="-414.2" font-family="Helvetica,sans-Serif" font-weight="bold" font-style="italic" font-size="14.00">user_id</text>
<text text-anchor="start" x="1009" y="-413.2" font-family="Helvetica,sans-Serif" font-size="14.00"> </text>
<text text-anchor="start" x="1043" y="-413.2" font-family="Helvetica,sans-Serif" font-size="14.00">uuid not null</text>
<text text-anchor="start" x="893" y="-392.2" font-family="Helvetica,sans-Serif" font-size="14.00">firstname</text>
<text text-anchor="start" x="1009" y="-392.2" font-family="Helvetica,sans-Serif" font-size="14.00"> </text>
<text text-anchor="start" x="1043" y="-392.2" font-family="Helvetica,sans-Serif" font-size="14.00">varchar(50) not null</text>
<text text-anchor="start" x="893" y="-371.2" font-family="Helvetica,sans-Serif" font-size="14.00">lastname</text>
<text text-anchor="start" x="1009" y="-371.2" font-family="Helvetica,sans-Serif" font-size="14.00"> </text>
<text text-anchor="start" x="1043" y="-371.2" font-family="Helvetica,sans-Serif" font-size="14.00">varchar(50) not null</text>
<text text-anchor="start" x="893" y="-350.2" font-family="Helvetica,sans-Serif" font-size="14.00">knightlyrank</text>
<text text-anchor="start" x="1009" y="-350.2" font-family="Helvetica,sans-Serif" font-size="14.00"> </text>
<text text-anchor="start" x="1043" y="-350.2" font-family="Helvetica,sans-Serif" font-size="14.00">varchar(100)</text>
<text text-anchor="start" x="893" y="-329.2" font-family="Helvetica,sans-Serif" font-size="14.00">horsename</text>
<text text-anchor="start" x="1009" y="-329.2" font-family="Helvetica,sans-Serif" font-size="14.00"> </text>
<text text-anchor="start" x="1043" y="-329.2" font-family="Helvetica,sans-Serif" font-size="14.00">varchar(50)</text>
<polygon fill="none" stroke="#888888" points="890,-322.5 890,-450.5 1184,-450.5 1184,-322.5 890,-322.5"/>
</g>
<!-- users_f89f9d1e -->
<g id="node7" class="node">
<title>users_f89f9d1e</title>
<polygon fill="#e9c2f2" stroke="none" points="441.75,-368.5 441.75,-389.5 539.75,-389.5 539.75,-368.5 441.75,-368.5"/>
<text text-anchor="start" x="443.5" y="-375.2" font-family="Helvetica,sans-Serif" font-weight="bold" font-style="italic" font-size="14.00">public.users</text>
<polygon fill="#e9c2f2" stroke="none" points="539.75,-368.5 539.75,-389.5 630.75,-389.5 630.75,-368.5 539.75,-368.5"/>
<text text-anchor="start" x="583.75" y="-374.2" font-family="Helvetica,sans-Serif" font-size="14.00">[table]</text>
<text text-anchor="start" x="443.75" y="-354.2" font-family="Helvetica,sans-Serif" font-weight="bold" font-style="italic" font-size="14.00">user_id</text>
<text text-anchor="start" x="528.75" y="-353.2" font-family="Helvetica,sans-Serif" font-size="14.00"> </text>
<text text-anchor="start" x="541.38" y="-353.2" font-family="Helvetica,sans-Serif" font-size="14.00">uuid not null</text>
<text text-anchor="start" x="443.75" y="-332.2" font-family="Helvetica,sans-Serif" font-size="14.00">email</text>
<text text-anchor="start" x="528.75" y="-332.2" font-family="Helvetica,sans-Serif" font-size="14.00"> </text>
<text text-anchor="start" x="541.75" y="-332.2" font-family="Helvetica,sans-Serif" font-size="14.00">text not null</text>
<text text-anchor="start" x="443.75" y="-311.2" font-family="Helvetica,sans-Serif" font-size="14.00">totp_secret</text>
<text text-anchor="start" x="528.75" y="-311.2" font-family="Helvetica,sans-Serif" font-size="14.00"> </text>
<text text-anchor="start" x="541.75" y="-311.2" font-family="Helvetica,sans-Serif" font-size="14.00">text not null</text>
<polygon fill="none" stroke="#888888" points="440.75,-304.5 440.75,-390.5 631.75,-390.5 631.75,-304.5 440.75,-304.5"/>
</g>
<!-- competitors_b0aeb7bd&#45;&gt;users_f89f9d1e -->
<g id="edge3" class="edge">
<title>competitors_b0aeb7bd:w&#45;&gt;users_f89f9d1e:e</title>
<path fill="none" stroke="black" d="M885.23,-418.47C773.3,-416.89 748.92,-360.09 636.96,-358.53"/>
<polygon fill="black" stroke="black" points="889.04,-413.49 888.96,-423.49 886.97,-423.48 887.04,-413.48 889.04,-413.49"/>
<polyline fill="none" stroke="black" points="890,-418.5 885,-418.46"/>
<polygon fill="black" stroke="black" points="633.22,-363.51 633.28,-353.51 635.28,-353.52 635.22,-363.52 633.22,-363.51"/>
<polyline fill="none" stroke="black" points="632.25,-358.5 637.25,-358.53"/>
<text text-anchor="start" x="693.25" y="-418.45" font-family="Helvetica,sans-Serif" font-size="14.00">fk_competitor_is_user</text>
</g>
<!-- events_a500f02f -->
<g id="node3" class="node">
<title>events_a500f02f</title>
<polygon fill="#e9c2f2" stroke="none" points="406.25,-557.5 406.25,-578.5 515.25,-578.5 515.25,-557.5 406.25,-557.5"/>
<text text-anchor="start" x="408.25" y="-564.2" font-family="Helvetica,sans-Serif" font-weight="bold" font-style="italic" font-size="14.00">public.events</text>
<polygon fill="#e9c2f2" stroke="none" points="515.25,-557.5 515.25,-578.5 666.25,-578.5 666.25,-557.5 515.25,-557.5"/>
<text text-anchor="start" x="619.25" y="-563.2" font-family="Helvetica,sans-Serif" font-size="14.00">[table]</text>
<text text-anchor="start" x="408.25" y="-543.2" font-family="Helvetica,sans-Serif" font-weight="bold" font-style="italic" font-size="14.00">eventid</text>
<text text-anchor="start" x="499.25" y="-542.2" font-family="Helvetica,sans-Serif" font-size="14.00"> </text>
<text text-anchor="start" x="517.25" y="-542.2" font-family="Helvetica,sans-Serif" font-size="14.00">uuid not null</text>
<text text-anchor="start" x="408.25" y="-521.2" font-family="Helvetica,sans-Serif" font-size="14.00">eventname</text>
<text text-anchor="start" x="499.25" y="-521.2" font-family="Helvetica,sans-Serif" font-size="14.00"> </text>
<text text-anchor="start" x="517.25" y="-521.2" font-family="Helvetica,sans-Serif" font-size="14.00">varchar(100) not null</text>
<text text-anchor="start" x="408.25" y="-500.2" font-family="Helvetica,sans-Serif" font-size="14.00">eventdate</text>
<text text-anchor="start" x="499.25" y="-500.2" font-family="Helvetica,sans-Serif" font-size="14.00"> </text>
<text text-anchor="start" x="517.25" y="-500.2" font-family="Helvetica,sans-Serif" font-size="14.00">date not null</text>
<text text-anchor="start" x="408.25" y="-479.2" font-family="Helvetica,sans-Serif" font-size="14.00">description</text>
<text text-anchor="start" x="499.25" y="-479.2" font-family="Helvetica,sans-Serif" font-size="14.00"> </text>
<text text-anchor="start" x="517.25" y="-479.2" font-family="Helvetica,sans-Serif" font-size="14.00">text</text>
<text text-anchor="start" x="408.25" y="-458.2" font-family="Helvetica,sans-Serif" font-size="14.00">locationid</text>
<text text-anchor="start" x="499.25" y="-458.2" font-family="Helvetica,sans-Serif" font-size="14.00"> </text>
<text text-anchor="start" x="517.25" y="-458.2" font-family="Helvetica,sans-Serif" font-size="14.00">uuid</text>
<polygon fill="none" stroke="#888888" points="405.25,-451.5 405.25,-579.5 667.25,-579.5 667.25,-451.5 405.25,-451.5"/>
</g>
<!-- location_6348aecb -->
<g id="node5" class="node">
<title>location_6348aecb</title>
<polygon fill="#e9c2f2" stroke="none" points="9,-472.5 9,-493.5 127,-493.5 127,-472.5 9,-472.5"/>
<text text-anchor="start" x="10.62" y="-479.2" font-family="Helvetica,sans-Serif" font-weight="bold" font-style="italic" font-size="14.00">public.location</text>
<polygon fill="#e9c2f2" stroke="none" points="127,-472.5 127,-493.5 278,-493.5 278,-472.5 127,-472.5"/>
<text text-anchor="start" x="231" y="-478.2" font-family="Helvetica,sans-Serif" font-size="14.00">[table]</text>
<text text-anchor="start" x="11" y="-458.2" font-family="Helvetica,sans-Serif" font-weight="bold" font-style="italic" font-size="14.00">locationid</text>
<text text-anchor="start" x="114" y="-457.2" font-family="Helvetica,sans-Serif" font-size="14.00"> </text>
<text text-anchor="start" x="129" y="-457.2" font-family="Helvetica,sans-Serif" font-size="14.00">uuid not null</text>
<text text-anchor="start" x="11" y="-436.2" font-family="Helvetica,sans-Serif" font-size="14.00">locationname</text>
<text text-anchor="start" x="114" y="-436.2" font-family="Helvetica,sans-Serif" font-size="14.00"> </text>
<text text-anchor="start" x="129" y="-436.2" font-family="Helvetica,sans-Serif" font-size="14.00">varchar(100) not null</text>
<text text-anchor="start" x="11" y="-415.2" font-family="Helvetica,sans-Serif" font-size="14.00">village</text>
<text text-anchor="start" x="114" y="-415.2" font-family="Helvetica,sans-Serif" font-size="14.00"> </text>
<text text-anchor="start" x="129" y="-415.2" font-family="Helvetica,sans-Serif" font-size="14.00">varchar(50)</text>
<text text-anchor="start" x="11" y="-394.2" font-family="Helvetica,sans-Serif" font-size="14.00">state</text>
<text text-anchor="start" x="114" y="-394.2" font-family="Helvetica,sans-Serif" font-size="14.00"> </text>
<text text-anchor="start" x="129" y="-394.2" font-family="Helvetica,sans-Serif" font-size="14.00">varchar(50)</text>
<text text-anchor="start" x="11" y="-373.2" font-family="Helvetica,sans-Serif" font-size="14.00">nation</text>
<text text-anchor="start" x="114" y="-373.2" font-family="Helvetica,sans-Serif" font-size="14.00"> </text>
<text text-anchor="start" x="129" y="-373.2" font-family="Helvetica,sans-Serif" font-size="14.00">varchar(50)</text>
<polygon fill="none" stroke="#888888" points="8,-366.5 8,-494.5 279,-494.5 279,-366.5 8,-366.5"/>
</g>
<!-- events_a500f02f&#45;&gt;location_6348aecb -->
<g id="edge2" class="edge">
<title>events_a500f02f:w&#45;&gt;location_6348aecb:e</title>
<path fill="none" stroke="black" d="M395.54,-462.5C349.02,-462.5 333.01,-462.5 284.32,-462.5"/>
<polygon fill="black" stroke="black" points="395.25,-462.5 405.25,-467 400.25,-462.5 405.25,-462.5 405.25,-462.5 405.25,-462.5 400.25,-462.5 405.25,-458 395.25,-462.5 395.25,-462.5"/>
<polygon fill="black" stroke="black" points="280.5,-467.5 280.5,-457.5 282.5,-457.5 282.5,-467.5 280.5,-467.5"/>
<polyline fill="none" stroke="black" points="279.5,-462.5 284.5,-462.5"/>
<text text-anchor="start" x="305" y="-466.45" font-family="Helvetica,sans-Serif" font-size="14.00">fk_location</text>
</g>
<!-- rewards_3393a63a -->
<g id="node4" class="node">
<title>rewards_3393a63a</title>
<polygon fill="#e9c2f2" stroke="none" points="902,-621 902,-642 1021,-642 1021,-621 902,-621"/>
<text text-anchor="start" x="903.75" y="-627.7" font-family="Helvetica,sans-Serif" font-weight="bold" font-style="italic" font-size="14.00">public.rewards</text>
<polygon fill="#e9c2f2" stroke="none" points="1021,-621 1021,-642 1172,-642 1172,-621 1021,-621"/>
<text text-anchor="start" x="1125" y="-626.7" font-family="Helvetica,sans-Serif" font-size="14.00">[table]</text>
<text text-anchor="start" x="904" y="-606.7" font-family="Helvetica,sans-Serif" font-weight="bold" font-style="italic" font-size="14.00">rewardid</text>
<text text-anchor="start" x="1004" y="-605.7" font-family="Helvetica,sans-Serif" font-size="14.00"> </text>
<text text-anchor="start" x="1023" y="-605.7" font-family="Helvetica,sans-Serif" font-size="14.00">uuid not null</text>
<text text-anchor="start" x="904" y="-584.7" font-family="Helvetica,sans-Serif" font-size="14.00">rewardname</text>
<text text-anchor="start" x="1004" y="-584.7" font-family="Helvetica,sans-Serif" font-size="14.00"> </text>
<text text-anchor="start" x="1023" y="-584.7" font-family="Helvetica,sans-Serif" font-size="14.00">varchar(100) not null</text>
<text text-anchor="start" x="904" y="-563.7" font-family="Helvetica,sans-Serif" font-size="14.00">description</text>
<text text-anchor="start" x="1004" y="-563.7" font-family="Helvetica,sans-Serif" font-size="14.00"> </text>
<text text-anchor="start" x="1023" y="-563.7" font-family="Helvetica,sans-Serif" font-size="14.00">text</text>
<text text-anchor="start" x="904" y="-542.7" font-family="Helvetica,sans-Serif" font-size="14.00">eventid</text>
<text text-anchor="start" x="1004" y="-542.7" font-family="Helvetica,sans-Serif" font-size="14.00"> </text>
<text text-anchor="start" x="1023" y="-542.7" font-family="Helvetica,sans-Serif" font-size="14.00">uuid</text>
<polygon fill="none" stroke="#888888" points="901,-536 901,-643 1173,-643 1173,-536 901,-536"/>
</g>
<!-- rewards_3393a63a&#45;&gt;events_a500f02f -->
<g id="edge1" class="edge">
<title>rewards_3393a63a:w&#45;&gt;events_a500f02f:e</title>
<path fill="none" stroke="black" d="M891.19,-547.5C796.95,-547.5 768.72,-547.5 672.2,-547.5"/>
<polygon fill="black" stroke="black" points="891,-547.5 901,-552 896,-547.5 901,-547.5 901,-547.5 901,-547.5 896,-547.5 901,-543 891,-547.5 891,-547.5"/>
<polygon fill="black" stroke="black" points="668.25,-552.5 668.25,-542.5 670.25,-542.5 670.25,-552.5 668.25,-552.5"/>
<polyline fill="none" stroke="black" points="667.25,-547.5 672.25,-547.5"/>
<text text-anchor="start" x="739" y="-551.45" font-family="Helvetica,sans-Serif" font-size="14.00">fk_event</text>
</g>
<!-- session_684991ac -->
<g id="node6" class="node">
<title>session_684991ac</title>
<polygon fill="#e9c2f2" stroke="none" points="934.5,-274 934.5,-295 1048.5,-295 1048.5,-274 934.5,-274"/>
<text text-anchor="start" x="936.38" y="-280.7" font-family="Helvetica,sans-Serif" font-weight="bold" font-style="italic" font-size="14.00">public.session</text>
<polygon fill="#e9c2f2" stroke="none" points="1048.5,-274 1048.5,-295 1139.5,-295 1139.5,-274 1048.5,-274"/>
<text text-anchor="start" x="1092.5" y="-279.7" font-family="Helvetica,sans-Serif" font-size="14.00">[table]</text>
<text text-anchor="start" x="936.5" y="-259.7" font-family="Helvetica,sans-Serif" font-weight="bold" font-style="italic" font-size="14.00">user_id</text>
<text text-anchor="start" x="1018.5" y="-258.7" font-family="Helvetica,sans-Serif" font-size="14.00"> </text>
<text text-anchor="start" x="1050.12" y="-258.7" font-family="Helvetica,sans-Serif" font-size="14.00">uuid not null</text>
<text text-anchor="start" x="936.5" y="-237.7" font-family="Helvetica,sans-Serif" font-size="14.00">secret</text>
<text text-anchor="start" x="1018.5" y="-237.7" font-family="Helvetica,sans-Serif" font-size="14.00"> </text>
<text text-anchor="start" x="1050.5" y="-237.7" font-family="Helvetica,sans-Serif" font-size="14.00">text not null</text>
<polygon fill="none" stroke="#888888" points="933.5,-231 933.5,-296 1140.5,-296 1140.5,-231 933.5,-231"/>
</g>
<!-- session_684991ac&#45;&gt;users_f89f9d1e -->
<g id="edge4" class="edge">
<title>session_684991ac:w&#45;&gt;users_f89f9d1e:e</title>
<path fill="none" stroke="black" d="M928.02,-263.92C882.1,-270.51 682.41,-351.77 637,-358.11"/>
<polygon fill="black" stroke="black" points="931.58,-258.6 932.43,-268.57 930.43,-268.74 929.59,-258.77 931.58,-258.6"/>
<polyline fill="none" stroke="black" points="933,-263.5 928.02,-263.92"/>
<polygon fill="black" stroke="black" points="633.66,-363.4 632.84,-353.43 634.83,-353.27 635.65,-363.24 633.66,-363.4"/>
<polyline fill="none" stroke="black" points="632.25,-358.5 637.23,-358.09"/>
<text text-anchor="start" x="696.25" y="-344.45" font-family="Helvetica,sans-Serif" font-size="14.00">session_user_id_fkey</text>
</g>
</g>
</svg>
