<?xml version="1.0" encoding="UTF-8" standalone="no"?>
<!DOCTYPE svg PUBLIC "-//W3C//DTD SVG 1.1//EN"
 "http://www.w3.org/Graphics/SVG/1.1/DTD/svg11.dtd">
<!-- Generated by graphviz version 8.0.5 (20230430.1635)
 -->
<!-- Title: Schema Diagram Pages: 1 -->
<svg width="1208pt" height="471pt"
 viewBox="0.00 0.00 1207.50 471.00" xmlns="http://www.w3.org/2000/svg" xmlns:xlink="http://www.w3.org/1999/xlink">
<g id="graph0" class="graph" transform="scale(1 1) rotate(0) translate(4 467)">
<title>Schema Diagram</title>
<polygon fill="white" stroke="none" points="-4,4 -4,-467 1203.5,-467 1203.5,4 -4,4"/>

<!-- _sqlx_migrations_c8bfe31 -->
<g id="node1" class="node">
<title>_sqlx_migrations_c8bfe31</title>
<polygon fill="#e9c2f2" stroke="none" points="858.5,-183 858.5,-204 1042.5,-204 1042.5,-183 858.5,-183"/>
<text text-anchor="start" x="860.12" y="-189.7" font-family="Helvetica,sans-Serif" font-weight="bold" font-style="italic" font-size="14.00">public._sqlx_migrations</text>
<polygon fill="#e9c2f2" stroke="none" points="1042.5,-183 1042.5,-204 1190.5,-204 1190.5,-183 1042.5,-183"/>
<text text-anchor="start" x="1143.5" y="-188.7" font-family="Helvetica,sans-Serif" font-size="14.00">[table]</text>
<text text-anchor="start" x="860.5" y="-168.7" font-family="Helvetica,sans-Serif" font-weight="bold" font-style="italic" font-size="14.00">version</text>
<text text-anchor="start" x="1002.5" y="-167.7" font-family="Helvetica,sans-Serif" font-size="14.00"> </text>
<text text-anchor="start" x="1044.5" y="-167.7" font-family="Helvetica,sans-Serif" font-size="14.00">int8 not null</text>
<text text-anchor="start" x="860.5" y="-146.7" font-family="Helvetica,sans-Serif" font-size="14.00">description</text>
<text text-anchor="start" x="1002.5" y="-146.7" font-family="Helvetica,sans-Serif" font-size="14.00"> </text>
<text text-anchor="start" x="1044.5" y="-146.7" font-family="Helvetica,sans-Serif" font-size="14.00">text not null</text>
<text text-anchor="start" x="860.5" y="-125.7" font-family="Helvetica,sans-Serif" font-size="14.00">installed_on</text>
<text text-anchor="start" x="1002.5" y="-125.7" font-family="Helvetica,sans-Serif" font-size="14.00"> </text>
<text text-anchor="start" x="1044.5" y="-125.7" font-family="Helvetica,sans-Serif" font-size="14.00">timestamptz not null</text>
<text text-anchor="start" x="860.5" y="-104.7" font-family="Helvetica,sans-Serif" font-size="14.00">success</text>
<text text-anchor="start" x="1002.5" y="-104.7" font-family="Helvetica,sans-Serif" font-size="14.00"> </text>
<text text-anchor="start" x="1044.5" y="-104.7" font-family="Helvetica,sans-Serif" font-size="14.00">bool not null</text>
<text text-anchor="start" x="860.5" y="-83.7" font-family="Helvetica,sans-Serif" font-size="14.00">checksum</text>
<text text-anchor="start" x="1002.5" y="-83.7" font-family="Helvetica,sans-Serif" font-size="14.00"> </text>
<text text-anchor="start" x="1044.5" y="-83.7" font-family="Helvetica,sans-Serif" font-size="14.00">bytea not null</text>
<text text-anchor="start" x="860.5" y="-62.7" font-family="Helvetica,sans-Serif" font-size="14.00">execution_time</text>
<text text-anchor="start" x="1002.5" y="-62.7" font-family="Helvetica,sans-Serif" font-size="14.00"> </text>
<text text-anchor="start" x="1044.5" y="-62.7" font-family="Helvetica,sans-Serif" font-size="14.00">int8 not null</text>
<polygon fill="none" stroke="#888888" points="857.5,-56 857.5,-205 1191.5,-205 1191.5,-56 857.5,-56"/>
</g>
<!-- bets_f2272518 -->
<g id="node2" class="node">
<title>bets_f2272518</title>
<polygon fill="#e9c2f2" stroke="none" points="954.38,-234.88 954.38,-256.12 1045.62,-256.12 1045.62,-234.88 954.38,-234.88"/>
<text text-anchor="start" x="956.38" y="-241.82" font-family="Helvetica,sans-Serif" font-weight="bold" font-style="italic" font-size="14.00">public.bets</text>
<polygon fill="#e9c2f2" stroke="none" points="1045.62,-234.88 1045.62,-256.12 1094.62,-256.12 1094.62,-234.88 1045.62,-234.88"/>
<text text-anchor="start" x="1047.62" y="-240.82" font-family="Helvetica,sans-Serif" font-size="14.00">[table]</text>
<polygon fill="none" stroke="#888888" points="953.38,-233.88 953.38,-257.12 1095.62,-257.12 1095.62,-233.88 953.38,-233.88"/>
</g>
<!-- deposit_4ea025b4 -->
<g id="node3" class="node">
<title>deposit_4ea025b4</title>
<polygon fill="#e9c2f2" stroke="none" points="434,-437 434,-458 548,-458 548,-437 434,-437"/>
<text text-anchor="start" x="435.88" y="-443.7" font-family="Helvetica,sans-Serif" font-weight="bold" font-style="italic" font-size="14.00">public.deposit</text>
<polygon fill="#e9c2f2" stroke="none" points="548,-437 548,-458 639,-458 639,-437 548,-437"/>
<text text-anchor="start" x="592" y="-442.7" font-family="Helvetica,sans-Serif" font-size="14.00">[table]</text>
<text text-anchor="start" x="436" y="-421.7" font-family="Helvetica,sans-Serif" font-size="14.00">user_id</text>
<text text-anchor="start" x="516" y="-421.7" font-family="Helvetica,sans-Serif" font-size="14.00"> </text>
<text text-anchor="start" x="549.62" y="-421.7" font-family="Helvetica,sans-Serif" font-size="14.00">uuid not null</text>
<text text-anchor="start" x="436" y="-400.7" font-family="Helvetica,sans-Serif" font-size="14.00">amt</text>
<text text-anchor="start" x="516" y="-400.7" font-family="Helvetica,sans-Serif" font-size="14.00"> </text>
<text text-anchor="start" x="550" y="-400.7" font-family="Helvetica,sans-Serif" font-size="14.00">int8</text>
<polygon fill="none" stroke="#888888" points="433,-394 433,-459 640,-459 640,-394 433,-394"/>
</g>
<!-- users_f89f9d1e -->
<g id="node7" class="node">
<title>users_f89f9d1e</title>
<polygon fill="#e9c2f2" stroke="none" points="9,-324.5 9,-345.5 107,-345.5 107,-324.5 9,-324.5"/>
<text text-anchor="start" x="10.75" y="-331.2" font-family="Helvetica,sans-Serif" font-weight="bold" font-style="italic" font-size="14.00">public.users</text>
<polygon fill="#e9c2f2" stroke="none" points="107,-324.5 107,-345.5 198,-345.5 198,-324.5 107,-324.5"/>
<text text-anchor="start" x="151" y="-330.2" font-family="Helvetica,sans-Serif" font-size="14.00">[table]</text>
<text text-anchor="start" x="11" y="-310.2" font-family="Helvetica,sans-Serif" font-weight="bold" font-style="italic" font-size="14.00">user_id</text>
<text text-anchor="start" x="96" y="-309.2" font-family="Helvetica,sans-Serif" font-size="14.00"> </text>
<text text-anchor="start" x="108.62" y="-309.2" font-family="Helvetica,sans-Serif" font-size="14.00">uuid not null</text>
<text text-anchor="start" x="11" y="-288.2" font-family="Helvetica,sans-Serif" font-size="14.00">email</text>
<text text-anchor="start" x="96" y="-288.2" font-family="Helvetica,sans-Serif" font-size="14.00"> </text>
<text text-anchor="start" x="109" y="-288.2" font-family="Helvetica,sans-Serif" font-size="14.00">text not null</text>
<text text-anchor="start" x="11" y="-267.2" font-family="Helvetica,sans-Serif" font-size="14.00">totp_secret</text>
<text text-anchor="start" x="96" y="-267.2" font-family="Helvetica,sans-Serif" font-size="14.00"> </text>
<text text-anchor="start" x="109" y="-267.2" font-family="Helvetica,sans-Serif" font-size="14.00">text not null</text>
<polygon fill="none" stroke="#888888" points="8,-260.5 8,-346.5 199,-346.5 199,-260.5 8,-260.5"/>
</g>
<!-- deposit_4ea025b4&#45;&gt;users_f89f9d1e -->
<g id="edge2" class="edge">
<title>deposit_4ea025b4:w&#45;&gt;users_f89f9d1e:e</title>
<path fill="none" stroke="black" d="M422.61,-426.51C333.99,-426.68 295.6,-428.1 225,-368.5 206.14,-352.58 223.25,-319.59 204.42,-315.03"/>
<polygon fill="black" stroke="black" points="422.5,-426.51 432.51,-431 427.5,-426.51 432.5,-426.5 432.5,-426.5 432.5,-426.5 427.5,-426.51 432.49,-422 422.5,-426.51 422.5,-426.51"/>
<polygon fill="black" stroke="black" points="199.96,-319.58 201.03,-309.64 203.02,-309.85 201.95,-319.79 199.96,-319.58"/>
<polyline fill="none" stroke="black" points="199.5,-314.5 204.47,-315.03"/>
<text text-anchor="start" x="230.25" y="-429.45" font-family="Helvetica,sans-Serif" font-size="14.00">deposit_user_id_fkey</text>
</g>
<!-- events_a500f02f -->
<g id="node4" class="node">
<title>events_a500f02f</title>
<polygon fill="#e9c2f2" stroke="none" points="406.5,-292 406.5,-313 515.5,-313 515.5,-292 406.5,-292"/>
<text text-anchor="start" x="408.5" y="-298.7" font-family="Helvetica,sans-Serif" font-weight="bold" font-style="italic" font-size="14.00">public.events</text>
<polygon fill="#e9c2f2" stroke="none" points="515.5,-292 515.5,-313 666.5,-313 666.5,-292 515.5,-292"/>
<text text-anchor="start" x="619.5" y="-297.7" font-family="Helvetica,sans-Serif" font-size="14.00">[table]</text>
<text text-anchor="start" x="408.5" y="-277.7" font-family="Helvetica,sans-Serif" font-weight="bold" font-style="italic" font-size="14.00">event_id</text>
<text text-anchor="start" x="502.5" y="-276.7" font-family="Helvetica,sans-Serif" font-size="14.00"> </text>
<text text-anchor="start" x="517.5" y="-276.7" font-family="Helvetica,sans-Serif" font-size="14.00">uuid not null</text>
<text text-anchor="start" x="408.5" y="-255.7" font-family="Helvetica,sans-Serif" font-size="14.00">event_name</text>
<text text-anchor="start" x="502.5" y="-255.7" font-family="Helvetica,sans-Serif" font-size="14.00"> </text>
<text text-anchor="start" x="517.5" y="-255.7" font-family="Helvetica,sans-Serif" font-size="14.00">varchar(100) not null</text>
<text text-anchor="start" x="408.5" y="-234.7" font-family="Helvetica,sans-Serif" font-size="14.00">begins</text>
<text text-anchor="start" x="502.5" y="-234.7" font-family="Helvetica,sans-Serif" font-size="14.00"> </text>
<text text-anchor="start" x="517.5" y="-234.7" font-family="Helvetica,sans-Serif" font-size="14.00">timestamptz not null</text>
<text text-anchor="start" x="408.5" y="-213.7" font-family="Helvetica,sans-Serif" font-size="14.00">flavor</text>
<text text-anchor="start" x="502.5" y="-213.7" font-family="Helvetica,sans-Serif" font-size="14.00"> </text>
<text text-anchor="start" x="517.5" y="-213.7" font-family="Helvetica,sans-Serif" font-size="14.00">text</text>
<text text-anchor="start" x="408.5" y="-192.7" font-family="Helvetica,sans-Serif" font-size="14.00">organizer</text>
<text text-anchor="start" x="502.5" y="-192.7" font-family="Helvetica,sans-Serif" font-size="14.00"> </text>
<text text-anchor="start" x="517.5" y="-192.7" font-family="Helvetica,sans-Serif" font-size="14.00">uuid</text>
<text text-anchor="start" x="408.5" y="-171.7" font-family="Helvetica,sans-Serif" font-size="14.00">finished</text>
<text text-anchor="start" x="502.5" y="-171.7" font-family="Helvetica,sans-Serif" font-size="14.00"> </text>
<text text-anchor="start" x="517.5" y="-171.7" font-family="Helvetica,sans-Serif" font-size="14.00">bool not null</text>
<polygon fill="none" stroke="#888888" points="405.5,-165 405.5,-314 667.5,-314 667.5,-165 405.5,-165"/>
</g>
<!-- events_a500f02f&#45;&gt;users_f89f9d1e -->
<g id="edge3" class="edge">
<title>events_a500f02f:w&#45;&gt;users_f89f9d1e:e</title>
<path fill="none" stroke="black" d="M395.66,-197.86C301.97,-204.8 301.39,-310.89 204.49,-314.41"/>
<polygon fill="black" stroke="black" points="395.51,-197.86 405.66,-202 400.5,-197.68 405.5,-197.5 405.5,-197.5 405.5,-197.5 400.5,-197.68 405.34,-193 395.51,-197.86 395.51,-197.86"/>
<polygon fill="black" stroke="black" points="200.59,-319.48 200.41,-309.48 202.41,-309.45 202.59,-319.45 200.59,-319.48"/>
<polyline fill="none" stroke="black" points="199.5,-314.5 204.5,-314.41"/>
<text text-anchor="start" x="225" y="-314.45" font-family="Helvetica,sans-Serif" font-size="14.00">events_organizer_fkey</text>
</g>
<!-- plays_f855ead5 -->
<g id="node5" class="node">
<title>plays_f855ead5</title>
<polygon fill="#e9c2f2" stroke="none" points="931,-349.5 931,-370.5 1027,-370.5 1027,-349.5 931,-349.5"/>
<text text-anchor="start" x="932.88" y="-356.2" font-family="Helvetica,sans-Serif" font-weight="bold" font-style="italic" font-size="14.00">public.plays</text>
<polygon fill="#e9c2f2" stroke="none" points="1027,-349.5 1027,-370.5 1118,-370.5 1118,-349.5 1027,-349.5"/>
<text text-anchor="start" x="1071" y="-355.2" font-family="Helvetica,sans-Serif" font-size="14.00">[table]</text>
<text text-anchor="start" x="933" y="-335.2" font-family="Helvetica,sans-Serif" font-weight="bold" font-style="italic" font-size="14.00">user_id</text>
<text text-anchor="start" x="1012" y="-334.2" font-family="Helvetica,sans-Serif" font-size="14.00"> </text>
<text text-anchor="start" x="1028.62" y="-334.2" font-family="Helvetica,sans-Serif" font-size="14.00">uuid not null</text>
<text text-anchor="start" x="933" y="-314.2" font-family="Helvetica,sans-Serif" font-weight="bold" font-style="italic" font-size="14.00">event_id</text>
<text text-anchor="start" x="1012" y="-313.2" font-family="Helvetica,sans-Serif" font-size="14.00"> </text>
<text text-anchor="start" x="1028.62" y="-313.2" font-family="Helvetica,sans-Serif" font-size="14.00">uuid not null</text>
<text text-anchor="start" x="933" y="-292.2" font-family="Helvetica,sans-Serif" font-size="14.00">score</text>
<text text-anchor="start" x="1012" y="-292.2" font-family="Helvetica,sans-Serif" font-size="14.00"> </text>
<text text-anchor="start" x="1029" y="-292.2" font-family="Helvetica,sans-Serif" font-size="14.00">int2</text>
<polygon fill="none" stroke="#888888" points="930,-285.5 930,-371.5 1119,-371.5 1119,-285.5 930,-285.5"/>
</g>
<!-- plays_f855ead5&#45;&gt;events_a500f02f -->
<g id="edge1" class="edge">
<title>plays_f855ead5:w&#45;&gt;events_a500f02f:e</title>
<path fill="none" stroke="black" d="M919.73,-317.42C811.97,-315.52 782.57,-282.49 672.46,-281.52"/>
<polygon fill="black" stroke="black" points="919.5,-317.41 929.46,-322 924.5,-317.46 929.5,-317.5 929.5,-317.5 929.5,-317.5 924.5,-317.46 929.54,-313 919.5,-317.41 919.5,-317.41"/>
<polygon fill="black" stroke="black" points="668.48,-286.5 668.52,-276.5 670.52,-276.51 670.48,-286.51 668.48,-286.5"/>
<polyline fill="none" stroke="black" points="667.5,-281.5 672.5,-281.52"/>
<text text-anchor="start" x="693.5" y="-310.45" font-family="Helvetica,sans-Serif" font-size="14.00">plays_event_id_fkey</text>
</g>
<!-- plays_f855ead5&#45;&gt;users_f89f9d1e -->
<g id="edge4" class="edge">
<title>plays_f855ead5:w&#45;&gt;users_f89f9d1e:e</title>
<path fill="none" stroke="black" d="M919.57,-339.55C756.7,-341.03 371.52,-376.77 225,-331.5 213.61,-327.98 213.06,-317.6 203.97,-315.07"/>
<polygon fill="black" stroke="black" points="919.5,-339.55 929.52,-344 924.5,-339.52 929.5,-339.5 929.5,-339.5 929.5,-339.5 924.5,-339.52 929.48,-335 919.5,-339.55 919.5,-339.55"/>
<polygon fill="black" stroke="black" points="199.86,-319.59 201.12,-309.66 203.1,-309.92 201.85,-319.84 199.86,-319.59"/>
<polyline fill="none" stroke="black" points="199.5,-314.5 204.46,-315.13"/>
<text text-anchor="start" x="471.62" y="-357.45" font-family="Helvetica,sans-Serif" font-size="14.00">plays_user_id_fkey</text>
</g>
<!-- session_684991ac -->
<g id="node6" class="node">
<title>session_684991ac</title>
<polygon fill="#e9c2f2" stroke="none" points="434,-117 434,-138 548,-138 548,-117 434,-117"/>
<text text-anchor="start" x="435.88" y="-123.7" font-family="Helvetica,sans-Serif" font-weight="bold" font-style="italic" font-size="14.00">public.session</text>
<polygon fill="#e9c2f2" stroke="none" points="548,-117 548,-138 639,-138 639,-117 548,-117"/>
<text text-anchor="start" x="592" y="-122.7" font-family="Helvetica,sans-Serif" font-size="14.00">[table]</text>
<text text-anchor="start" x="436" y="-101.7" font-family="Helvetica,sans-Serif" font-size="14.00">user_id</text>
<text text-anchor="start" x="516" y="-101.7" font-family="Helvetica,sans-Serif" font-size="14.00"> </text>
<text text-anchor="start" x="549.62" y="-101.7" font-family="Helvetica,sans-Serif" font-size="14.00">uuid not null</text>
<text text-anchor="start" x="436" y="-80.7" font-family="Helvetica,sans-Serif" font-size="14.00">secret</text>
<text text-anchor="start" x="516" y="-80.7" font-family="Helvetica,sans-Serif" font-size="14.00"> </text>
<text text-anchor="start" x="550" y="-80.7" font-family="Helvetica,sans-Serif" font-size="14.00">text not null</text>
<polygon fill="none" stroke="#888888" points="433,-74 433,-139 640,-139 640,-74 433,-74"/>
</g>
<!-- session_684991ac&#45;&gt;users_f89f9d1e -->
<g id="edge5" class="edge">
<title>session_684991ac:w&#45;&gt;users_f89f9d1e:e</title>
<path fill="none" stroke="black" d="M422.66,-106.5C331.6,-106.49 286.52,-107.67 225,-179.25 186.22,-224.37 256.63,-309.67 204.22,-314.3"/>
<polygon fill="black" stroke="black" points="422.5,-106.5 432.5,-111 427.5,-106.5 432.5,-106.5 432.5,-106.5 432.5,-106.5 427.5,-106.5 432.5,-102 422.5,-106.5 422.5,-106.5"/>
<polygon fill="black" stroke="black" points="200.71,-319.45 200.29,-309.46 202.29,-309.38 202.71,-319.37 200.71,-319.45"/>
<polyline fill="none" stroke="black" points="199.5,-314.5 204.5,-314.29"/>
<text text-anchor="start" x="229.88" y="-182.45" font-family="Helvetica,sans-Serif" font-size="14.00">session_user_id_fkey</text>
</g>
</g>
</svg>
