<?xml version="1.0" encoding="UTF-8" standalone="no"?>
<!DOCTYPE svg PUBLIC "-//W3C//DTD SVG 1.1//EN"
 "http://www.w3.org/Graphics/SVG/1.1/DTD/svg11.dtd">
<!-- Generated by graphviz version 8.0.5 (20230430.1635)
 -->
<!-- Title: Schema Diagram Pages: 1 -->
<svg width="1129pt" height="638pt"
 viewBox="0.00 0.00 1128.50 637.50" xmlns="http://www.w3.org/2000/svg" xmlns:xlink="http://www.w3.org/1999/xlink">
<g id="graph0" class="graph" transform="scale(1 1) rotate(0) translate(4 633.5)">
<title>Schema Diagram</title>
<polygon fill="white" stroke="none" points="-4,4 -4,-633.5 1124.5,-633.5 1124.5,4 -4,4"/>

<!-- _sqlx_migrations_c8bfe31 -->
<g id="node1" class="node">
<title>_sqlx_migrations_c8bfe31</title>
<polygon fill="#e9c2f2" stroke="none" points="779.5,-183 779.5,-204 963.5,-204 963.5,-183 779.5,-183"/>
<text text-anchor="start" x="781.12" y="-189.7" font-family="Helvetica,sans-Serif" font-weight="bold" font-style="italic" font-size="14.00">public._sqlx_migrations</text>
<polygon fill="#e9c2f2" stroke="none" points="963.5,-183 963.5,-204 1111.5,-204 1111.5,-183 963.5,-183"/>
<text text-anchor="start" x="1064.5" y="-188.7" font-family="Helvetica,sans-Serif" font-size="14.00">[table]</text>
<text text-anchor="start" x="781.5" y="-168.7" font-family="Helvetica,sans-Serif" font-weight="bold" font-style="italic" font-size="14.00">version</text>
<text text-anchor="start" x="923.5" y="-167.7" font-family="Helvetica,sans-Serif" font-size="14.00"> </text>
<text text-anchor="start" x="965.5" y="-167.7" font-family="Helvetica,sans-Serif" font-size="14.00">int8 not null</text>
<text text-anchor="start" x="781.5" y="-146.7" font-family="Helvetica,sans-Serif" font-size="14.00">description</text>
<text text-anchor="start" x="923.5" y="-146.7" font-family="Helvetica,sans-Serif" font-size="14.00"> </text>
<text text-anchor="start" x="965.5" y="-146.7" font-family="Helvetica,sans-Serif" font-size="14.00">text not null</text>
<text text-anchor="start" x="781.5" y="-125.7" font-family="Helvetica,sans-Serif" font-size="14.00">installed_on</text>
<text text-anchor="start" x="923.5" y="-125.7" font-family="Helvetica,sans-Serif" font-size="14.00"> </text>
<text text-anchor="start" x="965.5" y="-125.7" font-family="Helvetica,sans-Serif" font-size="14.00">timestamptz not null</text>
<text text-anchor="start" x="781.5" y="-104.7" font-family="Helvetica,sans-Serif" font-size="14.00">success</text>
<text text-anchor="start" x="923.5" y="-104.7" font-family="Helvetica,sans-Serif" font-size="14.00"> </text>
<text text-anchor="start" x="965.5" y="-104.7" font-family="Helvetica,sans-Serif" font-size="14.00">bool not null</text>
<text text-anchor="start" x="781.5" y="-83.7" font-family="Helvetica,sans-Serif" font-size="14.00">checksum</text>
<text text-anchor="start" x="923.5" y="-83.7" font-family="Helvetica,sans-Serif" font-size="14.00"> </text>
<text text-anchor="start" x="965.5" y="-83.7" font-family="Helvetica,sans-Serif" font-size="14.00">bytea not null</text>
<text text-anchor="start" x="781.5" y="-62.7" font-family="Helvetica,sans-Serif" font-size="14.00">execution_time</text>
<text text-anchor="start" x="923.5" y="-62.7" font-family="Helvetica,sans-Serif" font-size="14.00"> </text>
<text text-anchor="start" x="965.5" y="-62.7" font-family="Helvetica,sans-Serif" font-size="14.00">int8 not null</text>
<polygon fill="none" stroke="#888888" points="778.5,-56 778.5,-205 1112.5,-205 1112.5,-56 778.5,-56"/>
</g>
<!-- competitors_b0aeb7bd -->
<g id="node2" class="node">
<title>competitors_b0aeb7bd</title>
<polygon fill="#e9c2f2" stroke="none" points="799.5,-358 799.5,-379 949.5,-379 949.5,-358 799.5,-358"/>
<text text-anchor="start" x="801.38" y="-364.7" font-family="Helvetica,sans-Serif" font-weight="bold" font-style="italic" font-size="14.00">public.competitors</text>
<polygon fill="#e9c2f2" stroke="none" points="949.5,-358 949.5,-379 1091.5,-379 1091.5,-358 949.5,-358"/>
<text text-anchor="start" x="1044.5" y="-363.7" font-family="Helvetica,sans-Serif" font-size="14.00">[table]</text>
<text text-anchor="start" x="801.5" y="-343.7" font-family="Helvetica,sans-Serif" font-weight="bold" font-style="italic" font-size="14.00">competitorid</text>
<text text-anchor="start" x="924.5" y="-342.7" font-family="Helvetica,sans-Serif" font-size="14.00"> </text>
<text text-anchor="start" x="951.5" y="-342.7" font-family="Helvetica,sans-Serif" font-size="14.00">uuid not null</text>
<text text-anchor="start" x="801.5" y="-321.7" font-family="Helvetica,sans-Serif" font-size="14.00">firstname</text>
<text text-anchor="start" x="924.5" y="-321.7" font-family="Helvetica,sans-Serif" font-size="14.00"> </text>
<text text-anchor="start" x="951.5" y="-321.7" font-family="Helvetica,sans-Serif" font-size="14.00">varchar(50) not null</text>
<text text-anchor="start" x="801.5" y="-300.7" font-family="Helvetica,sans-Serif" font-size="14.00">lastname</text>
<text text-anchor="start" x="924.5" y="-300.7" font-family="Helvetica,sans-Serif" font-size="14.00"> </text>
<text text-anchor="start" x="951.5" y="-300.7" font-family="Helvetica,sans-Serif" font-size="14.00">varchar(50) not null</text>
<text text-anchor="start" x="801.5" y="-279.7" font-family="Helvetica,sans-Serif" font-size="14.00">knightlyrank</text>
<text text-anchor="start" x="924.5" y="-279.7" font-family="Helvetica,sans-Serif" font-size="14.00"> </text>
<text text-anchor="start" x="951.5" y="-279.7" font-family="Helvetica,sans-Serif" font-size="14.00">varchar(100)</text>
<text text-anchor="start" x="801.5" y="-258.7" font-family="Helvetica,sans-Serif" font-size="14.00">horsename</text>
<text text-anchor="start" x="924.5" y="-258.7" font-family="Helvetica,sans-Serif" font-size="14.00"> </text>
<text text-anchor="start" x="951.5" y="-258.7" font-family="Helvetica,sans-Serif" font-size="14.00">varchar(50)</text>
<text text-anchor="start" x="801.5" y="-237.7" font-family="Helvetica,sans-Serif" font-size="14.00">email</text>
<text text-anchor="start" x="924.5" y="-237.7" font-family="Helvetica,sans-Serif" font-size="14.00"> </text>
<text text-anchor="start" x="951.5" y="-237.7" font-family="Helvetica,sans-Serif" font-size="14.00">text not null</text>
<polygon fill="none" stroke="#888888" points="798.5,-231 798.5,-380 1092.5,-380 1092.5,-231 798.5,-231"/>
</g>
<!-- events_a500f02f -->
<g id="node3" class="node">
<title>events_a500f02f</title>
<polygon fill="#e9c2f2" stroke="none" points="406.25,-427.5 406.25,-448.5 515.25,-448.5 515.25,-427.5 406.25,-427.5"/>
<text text-anchor="start" x="408.25" y="-434.2" font-family="Helvetica,sans-Serif" font-weight="bold" font-style="italic" font-size="14.00">public.events</text>
<polygon fill="#e9c2f2" stroke="none" points="515.25,-427.5 515.25,-448.5 666.25,-448.5 666.25,-427.5 515.25,-427.5"/>
<text text-anchor="start" x="619.25" y="-433.2" font-family="Helvetica,sans-Serif" font-size="14.00">[table]</text>
<text text-anchor="start" x="408.25" y="-413.2" font-family="Helvetica,sans-Serif" font-weight="bold" font-style="italic" font-size="14.00">eventid</text>
<text text-anchor="start" x="499.25" y="-412.2" font-family="Helvetica,sans-Serif" font-size="14.00"> </text>
<text text-anchor="start" x="517.25" y="-412.2" font-family="Helvetica,sans-Serif" font-size="14.00">uuid not null</text>
<text text-anchor="start" x="408.25" y="-391.2" font-family="Helvetica,sans-Serif" font-size="14.00">eventname</text>
<text text-anchor="start" x="499.25" y="-391.2" font-family="Helvetica,sans-Serif" font-size="14.00"> </text>
<text text-anchor="start" x="517.25" y="-391.2" font-family="Helvetica,sans-Serif" font-size="14.00">varchar(100) not null</text>
<text text-anchor="start" x="408.25" y="-370.2" font-family="Helvetica,sans-Serif" font-size="14.00">eventdate</text>
<text text-anchor="start" x="499.25" y="-370.2" font-family="Helvetica,sans-Serif" font-size="14.00"> </text>
<text text-anchor="start" x="517.25" y="-370.2" font-family="Helvetica,sans-Serif" font-size="14.00">date not null</text>
<text text-anchor="start" x="408.25" y="-349.2" font-family="Helvetica,sans-Serif" font-size="14.00">description</text>
<text text-anchor="start" x="499.25" y="-349.2" font-family="Helvetica,sans-Serif" font-size="14.00"> </text>
<text text-anchor="start" x="517.25" y="-349.2" font-family="Helvetica,sans-Serif" font-size="14.00">text</text>
<text text-anchor="start" x="408.25" y="-328.2" font-family="Helvetica,sans-Serif" font-size="14.00">locationid</text>
<text text-anchor="start" x="499.25" y="-328.2" font-family="Helvetica,sans-Serif" font-size="14.00"> </text>
<text text-anchor="start" x="517.25" y="-328.2" font-family="Helvetica,sans-Serif" font-size="14.00">uuid</text>
<polygon fill="none" stroke="#888888" points="405.25,-321.5 405.25,-449.5 667.25,-449.5 667.25,-321.5 405.25,-321.5"/>
</g>
<!-- location_6348aecb -->
<g id="node5" class="node">
<title>location_6348aecb</title>
<polygon fill="#e9c2f2" stroke="none" points="9,-342.5 9,-363.5 127,-363.5 127,-342.5 9,-342.5"/>
<text text-anchor="start" x="10.62" y="-349.2" font-family="Helvetica,sans-Serif" font-weight="bold" font-style="italic" font-size="14.00">public.location</text>
<polygon fill="#e9c2f2" stroke="none" points="127,-342.5 127,-363.5 278,-363.5 278,-342.5 127,-342.5"/>
<text text-anchor="start" x="231" y="-348.2" font-family="Helvetica,sans-Serif" font-size="14.00">[table]</text>
<text text-anchor="start" x="11" y="-328.2" font-family="Helvetica,sans-Serif" font-weight="bold" font-style="italic" font-size="14.00">locationid</text>
<text text-anchor="start" x="114" y="-327.2" font-family="Helvetica,sans-Serif" font-size="14.00"> </text>
<text text-anchor="start" x="129" y="-327.2" font-family="Helvetica,sans-Serif" font-size="14.00">uuid not null</text>
<text text-anchor="start" x="11" y="-306.2" font-family="Helvetica,sans-Serif" font-size="14.00">locationname</text>
<text text-anchor="start" x="114" y="-306.2" font-family="Helvetica,sans-Serif" font-size="14.00"> </text>
<text text-anchor="start" x="129" y="-306.2" font-family="Helvetica,sans-Serif" font-size="14.00">varchar(100) not null</text>
<text text-anchor="start" x="11" y="-285.2" font-family="Helvetica,sans-Serif" font-size="14.00">village</text>
<text text-anchor="start" x="114" y="-285.2" font-family="Helvetica,sans-Serif" font-size="14.00"> </text>
<text text-anchor="start" x="129" y="-285.2" font-family="Helvetica,sans-Serif" font-size="14.00">varchar(50)</text>
<text text-anchor="start" x="11" y="-264.2" font-family="Helvetica,sans-Serif" font-size="14.00">state</text>
<text text-anchor="start" x="114" y="-264.2" font-family="Helvetica,sans-Serif" font-size="14.00"> </text>
<text text-anchor="start" x="129" y="-264.2" font-family="Helvetica,sans-Serif" font-size="14.00">varchar(50)</text>
<text text-anchor="start" x="11" y="-243.2" font-family="Helvetica,sans-Serif" font-size="14.00">nation</text>
<text text-anchor="start" x="114" y="-243.2" font-family="Helvetica,sans-Serif" font-size="14.00"> </text>
<text text-anchor="start" x="129" y="-243.2" font-family="Helvetica,sans-Serif" font-size="14.00">varchar(50)</text>
<polygon fill="none" stroke="#888888" points="8,-236.5 8,-364.5 279,-364.5 279,-236.5 8,-236.5"/>
</g>
<!-- events_a500f02f&#45;&gt;location_6348aecb -->
<g id="edge2" class="edge">
<title>events_a500f02f:w&#45;&gt;location_6348aecb:e</title>
<path fill="none" stroke="black" d="M395.54,-332.5C349.02,-332.5 333.01,-332.5 284.32,-332.5"/>
<polygon fill="black" stroke="black" points="395.25,-332.5 405.25,-337 400.25,-332.5 405.25,-332.5 405.25,-332.5 405.25,-332.5 400.25,-332.5 405.25,-328 395.25,-332.5 395.25,-332.5"/>
<polygon fill="black" stroke="black" points="280.5,-337.5 280.5,-327.5 282.5,-327.5 282.5,-337.5 280.5,-337.5"/>
<polyline fill="none" stroke="black" points="279.5,-332.5 284.5,-332.5"/>
<text text-anchor="start" x="305" y="-336.45" font-family="Helvetica,sans-Serif" font-size="14.00">fk_location</text>
</g>
<!-- rewards_3393a63a -->
<g id="node4" class="node">
<title>rewards_3393a63a</title>
<polygon fill="#e9c2f2" stroke="none" points="810.5,-491 810.5,-512 929.5,-512 929.5,-491 810.5,-491"/>
<text text-anchor="start" x="812.25" y="-497.7" font-family="Helvetica,sans-Serif" font-weight="bold" font-style="italic" font-size="14.00">public.rewards</text>
<polygon fill="#e9c2f2" stroke="none" points="929.5,-491 929.5,-512 1080.5,-512 1080.5,-491 929.5,-491"/>
<text text-anchor="start" x="1033.5" y="-496.7" font-family="Helvetica,sans-Serif" font-size="14.00">[table]</text>
<text text-anchor="start" x="812.5" y="-476.7" font-family="Helvetica,sans-Serif" font-weight="bold" font-style="italic" font-size="14.00">rewardid</text>
<text text-anchor="start" x="912.5" y="-475.7" font-family="Helvetica,sans-Serif" font-size="14.00"> </text>
<text text-anchor="start" x="931.5" y="-475.7" font-family="Helvetica,sans-Serif" font-size="14.00">uuid not null</text>
<text text-anchor="start" x="812.5" y="-454.7" font-family="Helvetica,sans-Serif" font-size="14.00">rewardname</text>
<text text-anchor="start" x="912.5" y="-454.7" font-family="Helvetica,sans-Serif" font-size="14.00"> </text>
<text text-anchor="start" x="931.5" y="-454.7" font-family="Helvetica,sans-Serif" font-size="14.00">varchar(100) not null</text>
<text text-anchor="start" x="812.5" y="-433.7" font-family="Helvetica,sans-Serif" font-size="14.00">description</text>
<text text-anchor="start" x="912.5" y="-433.7" font-family="Helvetica,sans-Serif" font-size="14.00"> </text>
<text text-anchor="start" x="931.5" y="-433.7" font-family="Helvetica,sans-Serif" font-size="14.00">text</text>
<text text-anchor="start" x="812.5" y="-412.7" font-family="Helvetica,sans-Serif" font-size="14.00">eventid</text>
<text text-anchor="start" x="912.5" y="-412.7" font-family="Helvetica,sans-Serif" font-size="14.00"> </text>
<text text-anchor="start" x="931.5" y="-412.7" font-family="Helvetica,sans-Serif" font-size="14.00">uuid</text>
<polygon fill="none" stroke="#888888" points="809.5,-406 809.5,-513 1081.5,-513 1081.5,-406 809.5,-406"/>
</g>
<!-- rewards_3393a63a&#45;&gt;events_a500f02f -->
<g id="edge1" class="edge">
<title>rewards_3393a63a:w&#45;&gt;events_a500f02f:e</title>
<path fill="none" stroke="black" d="M799.54,-417.5C745.91,-417.5 727.99,-417.5 672.06,-417.5"/>
<polygon fill="black" stroke="black" points="799.5,-417.5 809.5,-422 804.5,-417.5 809.5,-417.5 809.5,-417.5 809.5,-417.5 804.5,-417.5 809.5,-413 799.5,-417.5 799.5,-417.5"/>
<polygon fill="black" stroke="black" points="668.25,-422.5 668.25,-412.5 670.25,-412.5 670.25,-422.5 668.25,-422.5"/>
<polyline fill="none" stroke="black" points="667.25,-417.5 672.25,-417.5"/>
<text text-anchor="start" x="693.25" y="-421.45" font-family="Helvetica,sans-Serif" font-size="14.00">fk_event</text>
</g>
<!-- users_f89f9d1e -->
<g id="node6" class="node">
<title>users_f89f9d1e</title>
<polygon fill="#e9c2f2" stroke="none" points="851,-603.5 851,-624.5 949,-624.5 949,-603.5 851,-603.5"/>
<text text-anchor="start" x="852.75" y="-610.2" font-family="Helvetica,sans-Serif" font-weight="bold" font-style="italic" font-size="14.00">public.users</text>
<polygon fill="#e9c2f2" stroke="none" points="949,-603.5 949,-624.5 1040,-624.5 1040,-603.5 949,-603.5"/>
<text text-anchor="start" x="993" y="-609.2" font-family="Helvetica,sans-Serif" font-size="14.00">[table]</text>
<text text-anchor="start" x="853" y="-589.2" font-family="Helvetica,sans-Serif" font-weight="bold" font-style="italic" font-size="14.00">user_id</text>
<text text-anchor="start" x="938" y="-588.2" font-family="Helvetica,sans-Serif" font-size="14.00"> </text>
<text text-anchor="start" x="950.62" y="-588.2" font-family="Helvetica,sans-Serif" font-size="14.00">uuid not null</text>
<text text-anchor="start" x="853" y="-567.2" font-family="Helvetica,sans-Serif" font-size="14.00">email</text>
<text text-anchor="start" x="938" y="-567.2" font-family="Helvetica,sans-Serif" font-size="14.00"> </text>
<text text-anchor="start" x="951" y="-567.2" font-family="Helvetica,sans-Serif" font-size="14.00">text not null</text>
<text text-anchor="start" x="853" y="-546.2" font-family="Helvetica,sans-Serif" font-size="14.00">totp_secret</text>
<text text-anchor="start" x="938" y="-546.2" font-family="Helvetica,sans-Serif" font-size="14.00"> </text>
<text text-anchor="start" x="951" y="-546.2" font-family="Helvetica,sans-Serif" font-size="14.00">text not null</text>
<polygon fill="none" stroke="#888888" points="850,-539.5 850,-625.5 1041,-625.5 1041,-539.5 850,-539.5"/>
</g>
</g>
</svg>
