<?xml version="1.0" encoding="UTF-8" standalone="no"?>
<!DOCTYPE svg PUBLIC "-//W3C//DTD SVG 1.1//EN"
 "http://www.w3.org/Graphics/SVG/1.1/DTD/svg11.dtd">
<!-- Generated by graphviz version 8.0.5 (20230430.1635)
 -->
<!-- Title: SchemaCrawler_Diagram Pages: 1 -->
<svg width="358pt" height="217pt"
 viewBox="0.00 0.00 358.00 217.00" xmlns="http://www.w3.org/2000/svg" xmlns:xlink="http://www.w3.org/1999/xlink">
<g id="graph0" class="graph" transform="scale(1 1) rotate(0) translate(4 213)">
<title>SchemaCrawler_Diagram</title>
<polygon fill="white" stroke="none" points="-4,4 -4,-213 354,-213 354,4 -4,4"/>
<text text-anchor="start" x="75" y="-31.7" font-family="Helvetica,sans-Serif" font-size="14.00">generated by</text>
<text text-anchor="start" x="171.88" y="-31.7" font-family="Helvetica,sans-Serif" font-size="14.00">SchemaCrawler 16.20.4</text>
<text text-anchor="start" x="75" y="-10.7" font-family="Helvetica,sans-Serif" font-size="14.00">generated on</text>
<text text-anchor="start" x="172" y="-10.7" font-family="Helvetica,sans-Serif" font-size="14.00">2023&#45;09&#45;09 23:22:18</text>
<polygon fill="none" stroke="#888888" points="72,-4 72,-48 342,-48 342,-4 72,-4"/>
<!-- _sqlx_migrations_c8bfe31 -->
<g id="node1" class="node">
<title>_sqlx_migrations_c8bfe31</title>
<polygon fill="#e9c2f2" stroke="none" points="9,-183 9,-204 193,-204 193,-183 9,-183"/>
<text text-anchor="start" x="10.62" y="-189.7" font-family="Helvetica,sans-Serif" font-weight="bold" font-style="italic" font-size="14.00">public._sqlx_migrations</text>
<polygon fill="#e9c2f2" stroke="none" points="193,-183 193,-204 341,-204 341,-183 193,-183"/>
<text text-anchor="start" x="294" y="-188.7" font-family="Helvetica,sans-Serif" font-size="14.00">[table]</text>
<text text-anchor="start" x="11" y="-168.7" font-family="Helvetica,sans-Serif" font-weight="bold" font-style="italic" font-size="14.00">version</text>
<text text-anchor="start" x="153" y="-167.7" font-family="Helvetica,sans-Serif" font-size="14.00"> </text>
<text text-anchor="start" x="195" y="-167.7" font-family="Helvetica,sans-Serif" font-size="14.00">int8 not null</text>
<text text-anchor="start" x="11" y="-146.7" font-family="Helvetica,sans-Serif" font-size="14.00">description</text>
<text text-anchor="start" x="153" y="-146.7" font-family="Helvetica,sans-Serif" font-size="14.00"> </text>
<text text-anchor="start" x="195" y="-146.7" font-family="Helvetica,sans-Serif" font-size="14.00">text not null</text>
<text text-anchor="start" x="11" y="-125.7" font-family="Helvetica,sans-Serif" font-size="14.00">installed_on</text>
<text text-anchor="start" x="153" y="-125.7" font-family="Helvetica,sans-Serif" font-size="14.00"> </text>
<text text-anchor="start" x="195" y="-125.7" font-family="Helvetica,sans-Serif" font-size="14.00">timestamptz not null</text>
<text text-anchor="start" x="11" y="-104.7" font-family="Helvetica,sans-Serif" font-size="14.00">success</text>
<text text-anchor="start" x="153" y="-104.7" font-family="Helvetica,sans-Serif" font-size="14.00"> </text>
<text text-anchor="start" x="195" y="-104.7" font-family="Helvetica,sans-Serif" font-size="14.00">bool not null</text>
<text text-anchor="start" x="11" y="-83.7" font-family="Helvetica,sans-Serif" font-size="14.00">checksum</text>
<text text-anchor="start" x="153" y="-83.7" font-family="Helvetica,sans-Serif" font-size="14.00"> </text>
<text text-anchor="start" x="195" y="-83.7" font-family="Helvetica,sans-Serif" font-size="14.00">bytea not null</text>
<text text-anchor="start" x="11" y="-62.7" font-family="Helvetica,sans-Serif" font-size="14.00">execution_time</text>
<text text-anchor="start" x="153" y="-62.7" font-family="Helvetica,sans-Serif" font-size="14.00"> </text>
<text text-anchor="start" x="195" y="-62.7" font-family="Helvetica,sans-Serif" font-size="14.00">int8 not null</text>
<polygon fill="none" stroke="#888888" points="8,-56 8,-205 342,-205 342,-56 8,-56"/>
</g>
</g>
</svg>
