<?xml version="1.0" encoding="UTF-8" standalone="no"?>
<!DOCTYPE svg PUBLIC "-//W3C//DTD SVG 1.1//EN"
 "http://www.w3.org/Graphics/SVG/1.1/DTD/svg11.dtd">
<!-- Generated by graphviz version 8.0.5 (20230430.1635)
 -->
<!-- Title: Schema Diagram Pages: 1 -->
<svg width="1214pt" height="616pt"
 viewBox="0.00 0.00 1214.00 616.00" xmlns="http://www.w3.org/2000/svg" xmlns:xlink="http://www.w3.org/1999/xlink">
<g id="graph0" class="graph" transform="scale(1 1) rotate(0) translate(4 612)">
<title>Schema Diagram</title>
<polygon fill="white" stroke="none" points="-4,4 -4,-612 1210,-612 1210,4 -4,4"/>

<!-- _sqlx_migrations_c8bfe31 -->
<g id="node1" class="node">
<title>_sqlx_migrations_c8bfe31</title>
<polygon fill="#e9c2f2" stroke="none" points="865,-183 865,-204 1049,-204 1049,-183 865,-183"/>
<text text-anchor="start" x="866.62" y="-189.7" font-family="Helvetica,sans-Serif" font-weight="bold" font-style="italic" font-size="14.00">public._sqlx_migrations</text>
<polygon fill="#e9c2f2" stroke="none" points="1049,-183 1049,-204 1197,-204 1197,-183 1049,-183"/>
<text text-anchor="start" x="1150" y="-188.7" font-family="Helvetica,sans-Serif" font-size="14.00">[table]</text>
<text text-anchor="start" x="867" y="-168.7" font-family="Helvetica,sans-Serif" font-weight="bold" font-style="italic" font-size="14.00">version</text>
<text text-anchor="start" x="1009" y="-167.7" font-family="Helvetica,sans-Serif" font-size="14.00"> </text>
<text text-anchor="start" x="1051" y="-167.7" font-family="Helvetica,sans-Serif" font-size="14.00">int8 not null</text>
<text text-anchor="start" x="867" y="-146.7" font-family="Helvetica,sans-Serif" font-size="14.00">description</text>
<text text-anchor="start" x="1009" y="-146.7" font-family="Helvetica,sans-Serif" font-size="14.00"> </text>
<text text-anchor="start" x="1051" y="-146.7" font-family="Helvetica,sans-Serif" font-size="14.00">text not null</text>
<text text-anchor="start" x="867" y="-125.7" font-family="Helvetica,sans-Serif" font-size="14.00">installed_on</text>
<text text-anchor="start" x="1009" y="-125.7" font-family="Helvetica,sans-Serif" font-size="14.00"> </text>
<text text-anchor="start" x="1051" y="-125.7" font-family="Helvetica,sans-Serif" font-size="14.00">timestamptz not null</text>
<text text-anchor="start" x="867" y="-104.7" font-family="Helvetica,sans-Serif" font-size="14.00">success</text>
<text text-anchor="start" x="1009" y="-104.7" font-family="Helvetica,sans-Serif" font-size="14.00"> </text>
<text text-anchor="start" x="1051" y="-104.7" font-family="Helvetica,sans-Serif" font-size="14.00">bool not null</text>
<text text-anchor="start" x="867" y="-83.7" font-family="Helvetica,sans-Serif" font-size="14.00">checksum</text>
<text text-anchor="start" x="1009" y="-83.7" font-family="Helvetica,sans-Serif" font-size="14.00"> </text>
<text text-anchor="start" x="1051" y="-83.7" font-family="Helvetica,sans-Serif" font-size="14.00">bytea not null</text>
<text text-anchor="start" x="867" y="-62.7" font-family="Helvetica,sans-Serif" font-size="14.00">execution_time</text>
<text text-anchor="start" x="1009" y="-62.7" font-family="Helvetica,sans-Serif" font-size="14.00"> </text>
<text text-anchor="start" x="1051" y="-62.7" font-family="Helvetica,sans-Serif" font-size="14.00">int8 not null</text>
<polygon fill="none" stroke="#888888" points="864,-56 864,-205 1198,-205 1198,-56 864,-56"/>
</g>
<!-- competitors_b0aeb7bd -->
<g id="node2" class="node">
<title>competitors_b0aeb7bd</title>
<polygon fill="#e9c2f2" stroke="none" points="885,-358 885,-379 1035,-379 1035,-358 885,-358"/>
<text text-anchor="start" x="886.88" y="-364.7" font-family="Helvetica,sans-Serif" font-weight="bold" font-style="italic" font-size="14.00">public.competitors</text>
<polygon fill="#e9c2f2" stroke="none" points="1035,-358 1035,-379 1177,-379 1177,-358 1035,-358"/>
<text text-anchor="start" x="1130" y="-363.7" font-family="Helvetica,sans-Serif" font-size="14.00">[table]</text>
<text text-anchor="start" x="887" y="-343.7" font-family="Helvetica,sans-Serif" font-weight="bold" font-style="italic" font-size="14.00">competitorid</text>
<text text-anchor="start" x="1010" y="-342.7" font-family="Helvetica,sans-Serif" font-size="14.00"> </text>
<text text-anchor="start" x="1037" y="-342.7" font-family="Helvetica,sans-Serif" font-size="14.00">uuid not null</text>
<text text-anchor="start" x="887" y="-321.7" font-family="Helvetica,sans-Serif" font-size="14.00">firstname</text>
<text text-anchor="start" x="1010" y="-321.7" font-family="Helvetica,sans-Serif" font-size="14.00"> </text>
<text text-anchor="start" x="1037" y="-321.7" font-family="Helvetica,sans-Serif" font-size="14.00">varchar(50) not null</text>
<text text-anchor="start" x="887" y="-300.7" font-family="Helvetica,sans-Serif" font-size="14.00">lastname</text>
<text text-anchor="start" x="1010" y="-300.7" font-family="Helvetica,sans-Serif" font-size="14.00"> </text>
<text text-anchor="start" x="1037" y="-300.7" font-family="Helvetica,sans-Serif" font-size="14.00">varchar(50) not null</text>
<text text-anchor="start" x="887" y="-279.7" font-family="Helvetica,sans-Serif" font-size="14.00">knightlyrank</text>
<text text-anchor="start" x="1010" y="-279.7" font-family="Helvetica,sans-Serif" font-size="14.00"> </text>
<text text-anchor="start" x="1037" y="-279.7" font-family="Helvetica,sans-Serif" font-size="14.00">varchar(100)</text>
<text text-anchor="start" x="887" y="-258.7" font-family="Helvetica,sans-Serif" font-size="14.00">horsename</text>
<text text-anchor="start" x="1010" y="-258.7" font-family="Helvetica,sans-Serif" font-size="14.00"> </text>
<text text-anchor="start" x="1037" y="-258.7" font-family="Helvetica,sans-Serif" font-size="14.00">varchar(50)</text>
<text text-anchor="start" x="887" y="-237.7" font-family="Helvetica,sans-Serif" font-size="14.00">email</text>
<text text-anchor="start" x="1010" y="-237.7" font-family="Helvetica,sans-Serif" font-size="14.00"> </text>
<text text-anchor="start" x="1037" y="-237.7" font-family="Helvetica,sans-Serif" font-size="14.00">text not null</text>
<polygon fill="none" stroke="#888888" points="884,-231 884,-380 1178,-380 1178,-231 884,-231"/>
</g>
<!-- events_a500f02f -->
<g id="node3" class="node">
<title>events_a500f02f</title>
<polygon fill="#e9c2f2" stroke="none" points="406.25,-427.5 406.25,-448.5 515.25,-448.5 515.25,-427.5 406.25,-427.5"/>
<text text-anchor="start" x="408.25" y="-434.2" font-family="Helvetica,sans-Serif" font-weight="bold" font-style="italic" font-size="14.00">public.events</text>
<polygon fill="#e9c2f2" stroke="none" points="515.25,-427.5 515.25,-448.5 666.25,-448.5 666.25,-427.5 515.25,-427.5"/>
<text text-anchor="start" x="619.25" y="-433.2" font-family="Helvetica,sans-Serif" font-size="14.00">[table]</text>
<text text-anchor="start" x="408.25" y="-413.2" font-family="Helvetica,sans-Serif" font-weight="bold" font-style="italic" font-size="14.00">eventid</text>
<text text-anchor="start" x="499.25" y="-412.2" font-family="Helvetica,sans-Serif" font-size="14.00"> </text>
<text text-anchor="start" x="517.25" y="-412.2" font-family="Helvetica,sans-Serif" font-size="14.00">uuid not null</text>
<text text-anchor="start" x="408.25" y="-391.2" font-family="Helvetica,sans-Serif" font-size="14.00">eventname</text>
<text text-anchor="start" x="499.25" y="-391.2" font-family="Helvetica,sans-Serif" font-size="14.00"> </text>
<text text-anchor="start" x="517.25" y="-391.2" font-family="Helvetica,sans-Serif" font-size="14.00">varchar(100) not null</text>
<text text-anchor="start" x="408.25" y="-370.2" font-family="Helvetica,sans-Serif" font-size="14.00">eventdate</text>
<text text-anchor="start" x="499.25" y="-370.2" font-family="Helvetica,sans-Serif" font-size="14.00"> </text>
<text text-anchor="start" x="517.25" y="-370.2" font-family="Helvetica,sans-Serif" font-size="14.00">date not null</text>
<text text-anchor="start" x="408.25" y="-349.2" font-family="Helvetica,sans-Serif" font-size="14.00">description</text>
<text text-anchor="start" x="499.25" y="-349.2" font-family="Helvetica,sans-Serif" font-size="14.00"> </text>
<text text-anchor="start" x="517.25" y="-349.2" font-family="Helvetica,sans-Serif" font-size="14.00">text</text>
<text text-anchor="start" x="408.25" y="-328.2" font-family="Helvetica,sans-Serif" font-size="14.00">locationid</text>
<text text-anchor="start" x="499.25" y="-328.2" font-family="Helvetica,sans-Serif" font-size="14.00"> </text>
<text text-anchor="start" x="517.25" y="-328.2" font-family="Helvetica,sans-Serif" font-size="14.00">uuid</text>
<polygon fill="none" stroke="#888888" points="405.25,-321.5 405.25,-449.5 667.25,-449.5 667.25,-321.5 405.25,-321.5"/>
</g>
<!-- location_6348aecb -->
<g id="node5" class="node">
<title>location_6348aecb</title>
<polygon fill="#e9c2f2" stroke="none" points="9,-342.5 9,-363.5 127,-363.5 127,-342.5 9,-342.5"/>
<text text-anchor="start" x="10.62" y="-349.2" font-family="Helvetica,sans-Serif" font-weight="bold" font-style="italic" font-size="14.00">public.location</text>
<polygon fill="#e9c2f2" stroke="none" points="127,-342.5 127,-363.5 278,-363.5 278,-342.5 127,-342.5"/>
<text text-anchor="start" x="231" y="-348.2" font-family="Helvetica,sans-Serif" font-size="14.00">[table]</text>
<text text-anchor="start" x="11" y="-328.2" font-family="Helvetica,sans-Serif" font-weight="bold" font-style="italic" font-size="14.00">locationid</text>
<text text-anchor="start" x="114" y="-327.2" font-family="Helvetica,sans-Serif" font-size="14.00"> </text>
<text text-anchor="start" x="129" y="-327.2" font-family="Helvetica,sans-Serif" font-size="14.00">uuid not null</text>
<text text-anchor="start" x="11" y="-306.2" font-family="Helvetica,sans-Serif" font-size="14.00">locationname</text>
<text text-anchor="start" x="114" y="-306.2" font-family="Helvetica,sans-Serif" font-size="14.00"> </text>
<text text-anchor="start" x="129" y="-306.2" font-family="Helvetica,sans-Serif" font-size="14.00">varchar(100) not null</text>
<text text-anchor="start" x="11" y="-285.2" font-family="Helvetica,sans-Serif" font-size="14.00">village</text>
<text text-anchor="start" x="114" y="-285.2" font-family="Helvetica,sans-Serif" font-size="14.00"> </text>
<text text-anchor="start" x="129" y="-285.2" font-family="Helvetica,sans-Serif" font-size="14.00">varchar(50)</text>
<text text-anchor="start" x="11" y="-264.2" font-family="Helvetica,sans-Serif" font-size="14.00">state</text>
<text text-anchor="start" x="114" y="-264.2" font-family="Helvetica,sans-Serif" font-size="14.00"> </text>
<text text-anchor="start" x="129" y="-264.2" font-family="Helvetica,sans-Serif" font-size="14.00">varchar(50)</text>
<text text-anchor="start" x="11" y="-243.2" font-family="Helvetica,sans-Serif" font-size="14.00">nation</text>
<text text-anchor="start" x="114" y="-243.2" font-family="Helvetica,sans-Serif" font-size="14.00"> </text>
<text text-anchor="start" x="129" y="-243.2" font-family="Helvetica,sans-Serif" font-size="14.00">varchar(50)</text>
<polygon fill="none" stroke="#888888" points="8,-236.5 8,-364.5 279,-364.5 279,-236.5 8,-236.5"/>
</g>
<!-- events_a500f02f&#45;&gt;location_6348aecb -->
<g id="edge2" class="edge">
<title>events_a500f02f:w&#45;&gt;location_6348aecb:e</title>
<path fill="none" stroke="black" d="M395.54,-332.5C349.02,-332.5 333.01,-332.5 284.32,-332.5"/>
<polygon fill="black" stroke="black" points="395.25,-332.5 405.25,-337 400.25,-332.5 405.25,-332.5 405.25,-332.5 405.25,-332.5 400.25,-332.5 405.25,-328 395.25,-332.5 395.25,-332.5"/>
<polygon fill="black" stroke="black" points="280.5,-337.5 280.5,-327.5 282.5,-327.5 282.5,-337.5 280.5,-337.5"/>
<polyline fill="none" stroke="black" points="279.5,-332.5 284.5,-332.5"/>
<text text-anchor="start" x="305" y="-336.45" font-family="Helvetica,sans-Serif" font-size="14.00">fk_location</text>
</g>
<!-- rewards_3393a63a -->
<g id="node4" class="node">
<title>rewards_3393a63a</title>
<polygon fill="#e9c2f2" stroke="none" points="896,-491 896,-512 1015,-512 1015,-491 896,-491"/>
<text text-anchor="start" x="897.75" y="-497.7" font-family="Helvetica,sans-Serif" font-weight="bold" font-style="italic" font-size="14.00">public.rewards</text>
<polygon fill="#e9c2f2" stroke="none" points="1015,-491 1015,-512 1166,-512 1166,-491 1015,-491"/>
<text text-anchor="start" x="1119" y="-496.7" font-family="Helvetica,sans-Serif" font-size="14.00">[table]</text>
<text text-anchor="start" x="898" y="-476.7" font-family="Helvetica,sans-Serif" font-weight="bold" font-style="italic" font-size="14.00">rewardid</text>
<text text-anchor="start" x="998" y="-475.7" font-family="Helvetica,sans-Serif" font-size="14.00"> </text>
<text text-anchor="start" x="1017" y="-475.7" font-family="Helvetica,sans-Serif" font-size="14.00">uuid not null</text>
<text text-anchor="start" x="898" y="-454.7" font-family="Helvetica,sans-Serif" font-size="14.00">rewardname</text>
<text text-anchor="start" x="998" y="-454.7" font-family="Helvetica,sans-Serif" font-size="14.00"> </text>
<text text-anchor="start" x="1017" y="-454.7" font-family="Helvetica,sans-Serif" font-size="14.00">varchar(100) not null</text>
<text text-anchor="start" x="898" y="-433.7" font-family="Helvetica,sans-Serif" font-size="14.00">description</text>
<text text-anchor="start" x="998" y="-433.7" font-family="Helvetica,sans-Serif" font-size="14.00"> </text>
<text text-anchor="start" x="1017" y="-433.7" font-family="Helvetica,sans-Serif" font-size="14.00">text</text>
<text text-anchor="start" x="898" y="-412.7" font-family="Helvetica,sans-Serif" font-size="14.00">eventid</text>
<text text-anchor="start" x="998" y="-412.7" font-family="Helvetica,sans-Serif" font-size="14.00"> </text>
<text text-anchor="start" x="1017" y="-412.7" font-family="Helvetica,sans-Serif" font-size="14.00">uuid</text>
<polygon fill="none" stroke="#888888" points="895,-406 895,-513 1167,-513 1167,-406 895,-406"/>
</g>
<!-- rewards_3393a63a&#45;&gt;events_a500f02f -->
<g id="edge1" class="edge">
<title>rewards_3393a63a:w&#45;&gt;events_a500f02f:e</title>
<path fill="none" stroke="black" d="M885.16,-417.5C793.56,-417.5 766.02,-417.5 672.07,-417.5"/>
<polygon fill="black" stroke="black" points="885,-417.5 895,-422 890,-417.5 895,-417.5 895,-417.5 895,-417.5 890,-417.5 895,-413 885,-417.5 885,-417.5"/>
<polygon fill="black" stroke="black" points="668.25,-422.5 668.25,-412.5 670.25,-412.5 670.25,-422.5 668.25,-422.5"/>
<polyline fill="none" stroke="black" points="667.25,-417.5 672.25,-417.5"/>
<text text-anchor="start" x="736" y="-421.45" font-family="Helvetica,sans-Serif" font-size="14.00">fk_event</text>
</g>
<!-- session_684991ac -->
<g id="node6" class="node">
<title>session_684991ac</title>
<polygon fill="#e9c2f2" stroke="none" points="928.5,-582 928.5,-603 1042.5,-603 1042.5,-582 928.5,-582"/>
<text text-anchor="start" x="930.38" y="-588.7" font-family="Helvetica,sans-Serif" font-weight="bold" font-style="italic" font-size="14.00">public.session</text>
<polygon fill="#e9c2f2" stroke="none" points="1042.5,-582 1042.5,-603 1133.5,-603 1133.5,-582 1042.5,-582"/>
<text text-anchor="start" x="1086.5" y="-587.7" font-family="Helvetica,sans-Serif" font-size="14.00">[table]</text>
<text text-anchor="start" x="930.5" y="-567.7" font-family="Helvetica,sans-Serif" font-weight="bold" font-style="italic" font-size="14.00">user_id</text>
<text text-anchor="start" x="1012.5" y="-566.7" font-family="Helvetica,sans-Serif" font-size="14.00"> </text>
<text text-anchor="start" x="1044.12" y="-566.7" font-family="Helvetica,sans-Serif" font-size="14.00">uuid not null</text>
<text text-anchor="start" x="930.5" y="-545.7" font-family="Helvetica,sans-Serif" font-size="14.00">secret</text>
<text text-anchor="start" x="1012.5" y="-545.7" font-family="Helvetica,sans-Serif" font-size="14.00"> </text>
<text text-anchor="start" x="1044.5" y="-545.7" font-family="Helvetica,sans-Serif" font-size="14.00">text not null</text>
<polygon fill="none" stroke="#888888" points="927.5,-539 927.5,-604 1134.5,-604 1134.5,-539 927.5,-539"/>
</g>
<!-- users_f89f9d1e -->
<g id="node7" class="node">
<title>users_f89f9d1e</title>
<polygon fill="#e9c2f2" stroke="none" points="441.75,-581.5 441.75,-602.5 539.75,-602.5 539.75,-581.5 441.75,-581.5"/>
<text text-anchor="start" x="443.5" y="-588.2" font-family="Helvetica,sans-Serif" font-weight="bold" font-style="italic" font-size="14.00">public.users</text>
<polygon fill="#e9c2f2" stroke="none" points="539.75,-581.5 539.75,-602.5 630.75,-602.5 630.75,-581.5 539.75,-581.5"/>
<text text-anchor="start" x="583.75" y="-587.2" font-family="Helvetica,sans-Serif" font-size="14.00">[table]</text>
<text text-anchor="start" x="443.75" y="-567.2" font-family="Helvetica,sans-Serif" font-weight="bold" font-style="italic" font-size="14.00">user_id</text>
<text text-anchor="start" x="528.75" y="-566.2" font-family="Helvetica,sans-Serif" font-size="14.00"> </text>
<text text-anchor="start" x="541.38" y="-566.2" font-family="Helvetica,sans-Serif" font-size="14.00">uuid not null</text>
<text text-anchor="start" x="443.75" y="-545.2" font-family="Helvetica,sans-Serif" font-size="14.00">email</text>
<text text-anchor="start" x="528.75" y="-545.2" font-family="Helvetica,sans-Serif" font-size="14.00"> </text>
<text text-anchor="start" x="541.75" y="-545.2" font-family="Helvetica,sans-Serif" font-size="14.00">text not null</text>
<text text-anchor="start" x="443.75" y="-524.2" font-family="Helvetica,sans-Serif" font-size="14.00">totp_secret</text>
<text text-anchor="start" x="528.75" y="-524.2" font-family="Helvetica,sans-Serif" font-size="14.00"> </text>
<text text-anchor="start" x="541.75" y="-524.2" font-family="Helvetica,sans-Serif" font-size="14.00">text not null</text>
<polygon fill="none" stroke="#888888" points="440.75,-517.5 440.75,-603.5 631.75,-603.5 631.75,-517.5 440.75,-517.5"/>
</g>
<!-- session_684991ac&#45;&gt;users_f89f9d1e -->
<g id="edge3" class="edge">
<title>session_684991ac:w&#45;&gt;users_f89f9d1e:e</title>
<path fill="none" stroke="black" d="M922.06,-571.5C796.76,-571.5 762.45,-571.5 637.13,-571.5"/>
<polygon fill="black" stroke="black" points="926,-566.5 926,-576.5 924,-576.5 924,-566.5 926,-566.5"/>
<polyline fill="none" stroke="black" points="927,-571.5 922,-571.5"/>
<polygon fill="black" stroke="black" points="633.25,-576.5 633.25,-566.5 635.25,-566.5 635.25,-576.5 633.25,-576.5"/>
<polyline fill="none" stroke="black" points="632.25,-571.5 637.25,-571.5"/>
<text text-anchor="start" x="693.25" y="-575.45" font-family="Helvetica,sans-Serif" font-size="14.00">session_user_id_fkey</text>
</g>
</g>
</svg>
