<?xml version="1.0" encoding="UTF-8" standalone="no"?>
<!DOCTYPE svg PUBLIC "-//W3C//DTD SVG 1.1//EN"
 "http://www.w3.org/Graphics/SVG/1.1/DTD/svg11.dtd">
<!-- Generated by graphviz version 8.0.5 (20230430.1635)
 -->
<!-- Title: Schema Diagram Pages: 1 -->
<svg width="1208pt" height="1146pt"
 viewBox="0.00 0.00 1207.50 1146.00" xmlns="http://www.w3.org/2000/svg" xmlns:xlink="http://www.w3.org/1999/xlink">
<g id="graph0" class="graph" transform="scale(1 1) rotate(0) translate(4 1142)">
<title>Schema Diagram</title>
<polygon fill="white" stroke="none" points="-4,4 -4,-1142 1203.5,-1142 1203.5,4 -4,4"/>

<!-- _sqlx_migrations_c8bfe31 -->
<g id="node1" class="node">
<title>_sqlx_migrations_c8bfe31</title>
<polygon fill="#e9c2f2" stroke="none" points="858.5,-183 858.5,-204 1042.5,-204 1042.5,-183 858.5,-183"/>
<text text-anchor="start" x="860.12" y="-189.7" font-family="Helvetica,sans-Serif" font-weight="bold" font-style="italic" font-size="14.00">public._sqlx_migrations</text>
<polygon fill="#e9c2f2" stroke="none" points="1042.5,-183 1042.5,-204 1190.5,-204 1190.5,-183 1042.5,-183"/>
<text text-anchor="start" x="1143.5" y="-188.7" font-family="Helvetica,sans-Serif" font-size="14.00">[table]</text>
<text text-anchor="start" x="860.5" y="-168.7" font-family="Helvetica,sans-Serif" font-weight="bold" font-style="italic" font-size="14.00">version</text>
<text text-anchor="start" x="1002.5" y="-167.7" font-family="Helvetica,sans-Serif" font-size="14.00"> </text>
<text text-anchor="start" x="1044.5" y="-167.7" font-family="Helvetica,sans-Serif" font-size="14.00">int8 not null</text>
<text text-anchor="start" x="860.5" y="-146.7" font-family="Helvetica,sans-Serif" font-size="14.00">description</text>
<text text-anchor="start" x="1002.5" y="-146.7" font-family="Helvetica,sans-Serif" font-size="14.00"> </text>
<text text-anchor="start" x="1044.5" y="-146.7" font-family="Helvetica,sans-Serif" font-size="14.00">text not null</text>
<text text-anchor="start" x="860.5" y="-125.7" font-family="Helvetica,sans-Serif" font-size="14.00">installed_on</text>
<text text-anchor="start" x="1002.5" y="-125.7" font-family="Helvetica,sans-Serif" font-size="14.00"> </text>
<text text-anchor="start" x="1044.5" y="-125.7" font-family="Helvetica,sans-Serif" font-size="14.00">timestamptz not null</text>
<text text-anchor="start" x="860.5" y="-104.7" font-family="Helvetica,sans-Serif" font-size="14.00">success</text>
<text text-anchor="start" x="1002.5" y="-104.7" font-family="Helvetica,sans-Serif" font-size="14.00"> </text>
<text text-anchor="start" x="1044.5" y="-104.7" font-family="Helvetica,sans-Serif" font-size="14.00">bool not null</text>
<text text-anchor="start" x="860.5" y="-83.7" font-family="Helvetica,sans-Serif" font-size="14.00">checksum</text>
<text text-anchor="start" x="1002.5" y="-83.7" font-family="Helvetica,sans-Serif" font-size="14.00"> </text>
<text text-anchor="start" x="1044.5" y="-83.7" font-family="Helvetica,sans-Serif" font-size="14.00">bytea not null</text>
<text text-anchor="start" x="860.5" y="-62.7" font-family="Helvetica,sans-Serif" font-size="14.00">execution_time</text>
<text text-anchor="start" x="1002.5" y="-62.7" font-family="Helvetica,sans-Serif" font-size="14.00"> </text>
<text text-anchor="start" x="1044.5" y="-62.7" font-family="Helvetica,sans-Serif" font-size="14.00">int8 not null</text>
<polygon fill="none" stroke="#888888" points="857.5,-56 857.5,-205 1191.5,-205 1191.5,-56 857.5,-56"/>
</g>
<!-- bets_f2272518 -->
<g id="node2" class="node">
<title>bets_f2272518</title>
<polygon fill="#e9c2f2" stroke="none" points="934,-642 934,-663 1024,-663 1024,-642 934,-642"/>
<text text-anchor="start" x="935.88" y="-648.7" font-family="Helvetica,sans-Serif" font-weight="bold" font-style="italic" font-size="14.00">public.bets</text>
<polygon fill="#e9c2f2" stroke="none" points="1024,-642 1024,-663 1115,-663 1115,-642 1024,-642"/>
<text text-anchor="start" x="1068" y="-647.7" font-family="Helvetica,sans-Serif" font-size="14.00">[table]</text>
<text text-anchor="start" x="936" y="-626.7" font-family="Helvetica,sans-Serif" font-size="14.00">gambler</text>
<text text-anchor="start" x="1008" y="-626.7" font-family="Helvetica,sans-Serif" font-size="14.00"> </text>
<text text-anchor="start" x="1025.62" y="-626.7" font-family="Helvetica,sans-Serif" font-size="14.00">uuid not null</text>
<text text-anchor="start" x="936" y="-605.7" font-family="Helvetica,sans-Serif" font-size="14.00">player</text>
<text text-anchor="start" x="1008" y="-605.7" font-family="Helvetica,sans-Serif" font-size="14.00"> </text>
<text text-anchor="start" x="1025.62" y="-605.7" font-family="Helvetica,sans-Serif" font-size="14.00">uuid not null</text>
<text text-anchor="start" x="936" y="-584.7" font-family="Helvetica,sans-Serif" font-size="14.00">event_id</text>
<text text-anchor="start" x="1008" y="-584.7" font-family="Helvetica,sans-Serif" font-size="14.00"> </text>
<text text-anchor="start" x="1025.62" y="-584.7" font-family="Helvetica,sans-Serif" font-size="14.00">uuid not null</text>
<text text-anchor="start" x="936" y="-563.7" font-family="Helvetica,sans-Serif" font-size="14.00">amount</text>
<text text-anchor="start" x="1008" y="-563.7" font-family="Helvetica,sans-Serif" font-size="14.00"> </text>
<text text-anchor="start" x="1026" y="-563.7" font-family="Helvetica,sans-Serif" font-size="14.00">int8 not null</text>
<polygon fill="none" stroke="#888888" points="933,-557 933,-664 1116,-664 1116,-557 933,-557"/>
</g>
<!-- events_a500f02f -->
<g id="node6" class="node">
<title>events_a500f02f</title>
<polygon fill="#e9c2f2" stroke="none" points="406.5,-457 406.5,-478 515.5,-478 515.5,-457 406.5,-457"/>
<text text-anchor="start" x="408.5" y="-463.7" font-family="Helvetica,sans-Serif" font-weight="bold" font-style="italic" font-size="14.00">public.events</text>
<polygon fill="#e9c2f2" stroke="none" points="515.5,-457 515.5,-478 666.5,-478 666.5,-457 515.5,-457"/>
<text text-anchor="start" x="619.5" y="-462.7" font-family="Helvetica,sans-Serif" font-size="14.00">[table]</text>
<text text-anchor="start" x="408.5" y="-442.7" font-family="Helvetica,sans-Serif" font-weight="bold" font-style="italic" font-size="14.00">event_id</text>
<text text-anchor="start" x="502.5" y="-441.7" font-family="Helvetica,sans-Serif" font-size="14.00"> </text>
<text text-anchor="start" x="517.5" y="-441.7" font-family="Helvetica,sans-Serif" font-size="14.00">uuid not null</text>
<text text-anchor="start" x="408.5" y="-420.7" font-family="Helvetica,sans-Serif" font-size="14.00">event_name</text>
<text text-anchor="start" x="502.5" y="-420.7" font-family="Helvetica,sans-Serif" font-size="14.00"> </text>
<text text-anchor="start" x="517.5" y="-420.7" font-family="Helvetica,sans-Serif" font-size="14.00">varchar(100) not null</text>
<text text-anchor="start" x="408.5" y="-399.7" font-family="Helvetica,sans-Serif" font-size="14.00">begins</text>
<text text-anchor="start" x="502.5" y="-399.7" font-family="Helvetica,sans-Serif" font-size="14.00"> </text>
<text text-anchor="start" x="517.5" y="-399.7" font-family="Helvetica,sans-Serif" font-size="14.00">timestamptz not null</text>
<text text-anchor="start" x="408.5" y="-378.7" font-family="Helvetica,sans-Serif" font-size="14.00">flavor</text>
<text text-anchor="start" x="502.5" y="-378.7" font-family="Helvetica,sans-Serif" font-size="14.00"> </text>
<text text-anchor="start" x="517.5" y="-378.7" font-family="Helvetica,sans-Serif" font-size="14.00">text</text>
<text text-anchor="start" x="408.5" y="-357.7" font-family="Helvetica,sans-Serif" font-size="14.00">organizer</text>
<text text-anchor="start" x="502.5" y="-357.7" font-family="Helvetica,sans-Serif" font-size="14.00"> </text>
<text text-anchor="start" x="517.5" y="-357.7" font-family="Helvetica,sans-Serif" font-size="14.00">uuid</text>
<text text-anchor="start" x="408.5" y="-336.7" font-family="Helvetica,sans-Serif" font-size="14.00">finished</text>
<text text-anchor="start" x="502.5" y="-336.7" font-family="Helvetica,sans-Serif" font-size="14.00"> </text>
<text text-anchor="start" x="517.5" y="-336.7" font-family="Helvetica,sans-Serif" font-size="14.00">bool not null</text>
<polygon fill="none" stroke="#888888" points="405.5,-330 405.5,-479 667.5,-479 667.5,-330 405.5,-330"/>
</g>
<!-- bets_f2272518&#45;&gt;events_a500f02f -->
<g id="edge1" class="edge">
<title>bets_f2272518:w&#45;&gt;events_a500f02f:e</title>
<path fill="none" stroke="black" d="M922.57,-589.23C800.29,-582.42 797.97,-449.93 672.41,-446.57"/>
<polygon fill="black" stroke="black" points="922.5,-589.23 932.38,-594 927.5,-589.36 932.5,-589.5 932.5,-589.5 932.5,-589.5 927.5,-589.36 932.62,-585 922.5,-589.23 922.5,-589.23"/>
<polygon fill="black" stroke="black" points="668.43,-451.51 668.57,-441.51 670.57,-441.54 670.43,-451.54 668.43,-451.51"/>
<polyline fill="none" stroke="black" points="667.5,-446.5 672.5,-446.57"/>
<text text-anchor="start" x="696.88" y="-550.45" font-family="Helvetica,sans-Serif" font-size="14.00">bets_event_id_fkey</text>
</g>
<!-- users_f89f9d1e -->
<g id="node11" class="node">
<title>users_f89f9d1e</title>
<polygon fill="#e9c2f2" stroke="none" points="9,-503.5 9,-524.5 107,-524.5 107,-503.5 9,-503.5"/>
<text text-anchor="start" x="10.75" y="-510.2" font-family="Helvetica,sans-Serif" font-weight="bold" font-style="italic" font-size="14.00">public.users</text>
<polygon fill="#e9c2f2" stroke="none" points="107,-503.5 107,-524.5 198,-524.5 198,-503.5 107,-503.5"/>
<text text-anchor="start" x="151" y="-509.2" font-family="Helvetica,sans-Serif" font-size="14.00">[table]</text>
<text text-anchor="start" x="11" y="-489.2" font-family="Helvetica,sans-Serif" font-weight="bold" font-style="italic" font-size="14.00">user_id</text>
<text text-anchor="start" x="96" y="-488.2" font-family="Helvetica,sans-Serif" font-size="14.00"> </text>
<text text-anchor="start" x="108.62" y="-488.2" font-family="Helvetica,sans-Serif" font-size="14.00">uuid not null</text>
<text text-anchor="start" x="11" y="-467.2" font-family="Helvetica,sans-Serif" font-size="14.00">email</text>
<text text-anchor="start" x="96" y="-467.2" font-family="Helvetica,sans-Serif" font-size="14.00"> </text>
<text text-anchor="start" x="109" y="-467.2" font-family="Helvetica,sans-Serif" font-size="14.00">text not null</text>
<text text-anchor="start" x="11" y="-446.2" font-family="Helvetica,sans-Serif" font-size="14.00">totp_secret</text>
<text text-anchor="start" x="96" y="-446.2" font-family="Helvetica,sans-Serif" font-size="14.00"> </text>
<text text-anchor="start" x="109" y="-446.2" font-family="Helvetica,sans-Serif" font-size="14.00">text not null</text>
<polygon fill="none" stroke="#888888" points="8,-439.5 8,-525.5 199,-525.5 199,-439.5 8,-439.5"/>
</g>
<!-- bets_f2272518&#45;&gt;users_f89f9d1e -->
<g id="edge3" class="edge">
<title>bets_f2272518:w&#45;&gt;users_f89f9d1e:e</title>
<path fill="none" stroke="black" d="M922.88,-631.56C614.86,-635.52 461.12,-827.27 225,-624.5 181.32,-586.99 254.3,-498.87 204.36,-493.73"/>
<polygon fill="black" stroke="black" points="922.5,-631.56 932.53,-636 927.5,-631.53 932.5,-631.5 932.5,-631.5 932.5,-631.5 927.5,-631.53 932.47,-627 922.5,-631.56 922.5,-631.56"/>
<polygon fill="black" stroke="black" points="200.26,-498.54 200.74,-488.55 202.74,-488.65 202.26,-498.64 200.26,-498.54"/>
<polyline fill="none" stroke="black" points="199.5,-493.5 204.49,-493.74"/>
<text text-anchor="start" x="471.25" y="-720.45" font-family="Helvetica,sans-Serif" font-size="14.00">bets_gambler_fkey</text>
</g>
<!-- bets_f2272518&#45;&gt;users_f89f9d1e -->
<g id="edge4" class="edge">
<title>bets_f2272518:w&#45;&gt;users_f89f9d1e:e</title>
<path fill="none" stroke="black" d="M922.83,-610.5C692.74,-610.48 630.87,-609.58 397.5,-583.5 320.16,-574.86 285.97,-601.86 225,-553.5 203.72,-536.62 225.39,-498.66 204.31,-493.98"/>
<polygon fill="black" stroke="black" points="922.5,-610.5 932.5,-615 927.5,-610.5 932.5,-610.5 932.5,-610.5 932.5,-610.5 927.5,-610.5 932.5,-606 922.5,-610.5 922.5,-610.5"/>
<polygon fill="black" stroke="black" points="200,-498.57 200.99,-488.62 202.98,-488.82 201.99,-498.77 200,-498.57"/>
<polyline fill="none" stroke="black" points="199.5,-493.5 204.48,-493.99"/>
<text text-anchor="start" x="478.38" y="-610.45" font-family="Helvetica,sans-Serif" font-size="14.00">bets_player_fkey</text>
</g>
<!-- betson_9ef9ba77 -->
<g id="node3" class="node">
<title>betson_9ef9ba77</title>
<polygon fill="#e9c2f2" stroke="none" points="939.5,-754.5 939.5,-775.5 1048.5,-775.5 1048.5,-754.5 939.5,-754.5"/>
<text text-anchor="start" x="941.12" y="-761.2" font-family="Helvetica,sans-Serif" font-weight="bold" font-style="italic" font-size="14.00">public.betson</text>
<polygon fill="#e9c2f2" stroke="none" points="1048.5,-754.5 1048.5,-775.5 1109.5,-775.5 1109.5,-754.5 1048.5,-754.5"/>
<text text-anchor="start" x="1065.5" y="-760.2" font-family="Helvetica,sans-Serif" font-size="14.00">[view]</text>
<text text-anchor="start" x="941.5" y="-739.2" font-family="Helvetica,sans-Serif" font-size="14.00">e_id</text>
<text text-anchor="start" x="1034.5" y="-739.2" font-family="Helvetica,sans-Serif" font-size="14.00"> </text>
<text text-anchor="start" x="1050.5" y="-739.2" font-family="Helvetica,sans-Serif" font-size="14.00">uuid</text>
<text text-anchor="start" x="941.5" y="-718.2" font-family="Helvetica,sans-Serif" font-size="14.00">p_id</text>
<text text-anchor="start" x="1034.5" y="-718.2" font-family="Helvetica,sans-Serif" font-size="14.00"> </text>
<text text-anchor="start" x="1050.5" y="-718.2" font-family="Helvetica,sans-Serif" font-size="14.00">uuid</text>
<text text-anchor="start" x="941.5" y="-697.2" font-family="Helvetica,sans-Serif" font-size="14.00">bet_amount</text>
<text text-anchor="start" x="1034.5" y="-697.2" font-family="Helvetica,sans-Serif" font-size="14.00"> </text>
<text text-anchor="start" x="1050.5" y="-697.2" font-family="Helvetica,sans-Serif" font-size="14.00">numeric</text>
<polygon fill="none" stroke="#888888" points="938.5,-690.5 938.5,-776.5 1110.5,-776.5 1110.5,-690.5 938.5,-690.5"/>
</g>
<!-- betsonby_617c728e -->
<g id="node4" class="node">
<title>betsonby_617c728e</title>
<polygon fill="#e9c2f2" stroke="none" points="930,-888 930,-909 1058,-909 1058,-888 930,-888"/>
<text text-anchor="start" x="931.75" y="-894.7" font-family="Helvetica,sans-Serif" font-weight="bold" font-style="italic" font-size="14.00">public.betsonby</text>
<polygon fill="#e9c2f2" stroke="none" points="1058,-888 1058,-909 1119,-909 1119,-888 1058,-888"/>
<text text-anchor="start" x="1075" y="-893.7" font-family="Helvetica,sans-Serif" font-size="14.00">[view]</text>
<text text-anchor="start" x="932" y="-872.7" font-family="Helvetica,sans-Serif" font-size="14.00">e_id</text>
<text text-anchor="start" x="1035" y="-872.7" font-family="Helvetica,sans-Serif" font-size="14.00"> </text>
<text text-anchor="start" x="1060" y="-872.7" font-family="Helvetica,sans-Serif" font-size="14.00">uuid</text>
<text text-anchor="start" x="932" y="-851.7" font-family="Helvetica,sans-Serif" font-size="14.00">g_id</text>
<text text-anchor="start" x="1035" y="-851.7" font-family="Helvetica,sans-Serif" font-size="14.00"> </text>
<text text-anchor="start" x="1060" y="-851.7" font-family="Helvetica,sans-Serif" font-size="14.00">uuid</text>
<text text-anchor="start" x="932" y="-830.7" font-family="Helvetica,sans-Serif" font-size="14.00">p_id</text>
<text text-anchor="start" x="1035" y="-830.7" font-family="Helvetica,sans-Serif" font-size="14.00"> </text>
<text text-anchor="start" x="1060" y="-830.7" font-family="Helvetica,sans-Serif" font-size="14.00">uuid</text>
<text text-anchor="start" x="932" y="-809.7" font-family="Helvetica,sans-Serif" font-size="14.00">bet_amount</text>
<text text-anchor="start" x="1035" y="-809.7" font-family="Helvetica,sans-Serif" font-size="14.00"> </text>
<text text-anchor="start" x="1060" y="-809.7" font-family="Helvetica,sans-Serif" font-size="14.00">numeric</text>
<polygon fill="none" stroke="#888888" points="929,-803 929,-910 1120,-910 1120,-803 929,-803"/>
</g>
<!-- deposit_4ea025b4 -->
<g id="node5" class="node">
<title>deposit_4ea025b4</title>
<polygon fill="#e9c2f2" stroke="none" points="434,-548 434,-569 548,-569 548,-548 434,-548"/>
<text text-anchor="start" x="435.88" y="-554.7" font-family="Helvetica,sans-Serif" font-weight="bold" font-style="italic" font-size="14.00">public.deposit</text>
<polygon fill="#e9c2f2" stroke="none" points="548,-548 548,-569 639,-569 639,-548 548,-548"/>
<text text-anchor="start" x="592" y="-553.7" font-family="Helvetica,sans-Serif" font-size="14.00">[table]</text>
<text text-anchor="start" x="436" y="-532.7" font-family="Helvetica,sans-Serif" font-size="14.00">user_id</text>
<text text-anchor="start" x="516" y="-532.7" font-family="Helvetica,sans-Serif" font-size="14.00"> </text>
<text text-anchor="start" x="549.62" y="-532.7" font-family="Helvetica,sans-Serif" font-size="14.00">uuid not null</text>
<text text-anchor="start" x="436" y="-511.7" font-family="Helvetica,sans-Serif" font-size="14.00">amt</text>
<text text-anchor="start" x="516" y="-511.7" font-family="Helvetica,sans-Serif" font-size="14.00"> </text>
<text text-anchor="start" x="550" y="-511.7" font-family="Helvetica,sans-Serif" font-size="14.00">int8</text>
<polygon fill="none" stroke="#888888" points="433,-505 433,-570 640,-570 640,-505 433,-505"/>
</g>
<!-- deposit_4ea025b4&#45;&gt;users_f89f9d1e -->
<g id="edge5" class="edge">
<title>deposit_4ea025b4:w&#45;&gt;users_f89f9d1e:e</title>
<path fill="none" stroke="black" d="M422.56,-537.37C327.11,-534.75 302.26,-494.78 204.22,-493.53"/>
<polygon fill="black" stroke="black" points="422.5,-537.36 432.44,-542 427.5,-537.43 432.5,-537.5 432.5,-537.5 432.5,-537.5 427.5,-537.43 432.56,-533 422.5,-537.36 422.5,-537.36"/>
<polygon fill="black" stroke="black" points="200.47,-498.51 200.53,-488.51 202.53,-488.52 202.47,-498.52 200.47,-498.51"/>
<polyline fill="none" stroke="black" points="199.5,-493.5 204.5,-493.53"/>
<text text-anchor="start" x="230.25" y="-536.45" font-family="Helvetica,sans-Serif" font-size="14.00">deposit_user_id_fkey</text>
</g>
<!-- events_a500f02f&#45;&gt;users_f89f9d1e -->
<g id="edge6" class="edge">
<title>events_a500f02f:w&#45;&gt;users_f89f9d1e:e</title>
<path fill="none" stroke="black" d="M395.62,-362.72C310.62,-366.6 299.32,-421.23 225,-473.25 214.63,-480.51 213.96,-490.57 204.26,-492.97"/>
<polygon fill="black" stroke="black" points="395.5,-362.72 405.6,-367 400.5,-362.61 405.5,-362.5 405.5,-362.5 405.5,-362.5 400.5,-362.61 405.4,-358 395.5,-362.72 395.5,-362.72"/>
<polygon fill="black" stroke="black" points="201.05,-498.36 199.94,-488.42 201.93,-488.2 203.03,-498.14 201.05,-498.36"/>
<polyline fill="none" stroke="black" points="199.5,-493.5 204.47,-492.95"/>
<text text-anchor="start" x="225" y="-476.45" font-family="Helvetica,sans-Serif" font-size="14.00">events_organizer_fkey</text>
</g>
<!-- plays_f855ead5 -->
<g id="node7" class="node">
<title>plays_f855ead5</title>
<polygon fill="#e9c2f2" stroke="none" points="931,-295.5 931,-316.5 1027,-316.5 1027,-295.5 931,-295.5"/>
<text text-anchor="start" x="932.88" y="-302.2" font-family="Helvetica,sans-Serif" font-weight="bold" font-style="italic" font-size="14.00">public.plays</text>
<polygon fill="#e9c2f2" stroke="none" points="1027,-295.5 1027,-316.5 1118,-316.5 1118,-295.5 1027,-295.5"/>
<text text-anchor="start" x="1071" y="-301.2" font-family="Helvetica,sans-Serif" font-size="14.00">[table]</text>
<text text-anchor="start" x="933" y="-281.2" font-family="Helvetica,sans-Serif" font-weight="bold" font-style="italic" font-size="14.00">user_id</text>
<text text-anchor="start" x="1012" y="-280.2" font-family="Helvetica,sans-Serif" font-size="14.00"> </text>
<text text-anchor="start" x="1028.62" y="-280.2" font-family="Helvetica,sans-Serif" font-size="14.00">uuid not null</text>
<text text-anchor="start" x="933" y="-260.2" font-family="Helvetica,sans-Serif" font-weight="bold" font-style="italic" font-size="14.00">event_id</text>
<text text-anchor="start" x="1012" y="-259.2" font-family="Helvetica,sans-Serif" font-size="14.00"> </text>
<text text-anchor="start" x="1028.62" y="-259.2" font-family="Helvetica,sans-Serif" font-size="14.00">uuid not null</text>
<text text-anchor="start" x="933" y="-238.2" font-family="Helvetica,sans-Serif" font-size="14.00">score</text>
<text text-anchor="start" x="1012" y="-238.2" font-family="Helvetica,sans-Serif" font-size="14.00"> </text>
<text text-anchor="start" x="1029" y="-238.2" font-family="Helvetica,sans-Serif" font-size="14.00">int8</text>
<polygon fill="none" stroke="#888888" points="930,-231.5 930,-317.5 1119,-317.5 1119,-231.5 930,-231.5"/>
</g>
<!-- plays_f855ead5&#45;&gt;events_a500f02f -->
<g id="edge2" class="edge">
<title>plays_f855ead5:w&#45;&gt;events_a500f02f:e</title>
<path fill="none" stroke="black" d="M919.78,-263.8C789.95,-271.88 805.81,-442.43 672.31,-446.43"/>
<polygon fill="black" stroke="black" points="919.5,-263.81 929.64,-268 924.5,-263.65 929.5,-263.5 929.5,-263.5 929.5,-263.5 924.5,-263.65 929.36,-259 919.5,-263.81 919.5,-263.81"/>
<polygon fill="black" stroke="black" points="668.57,-451.48 668.43,-441.49 670.43,-441.46 670.57,-451.45 668.57,-451.48"/>
<polyline fill="none" stroke="black" points="667.5,-446.5 672.5,-446.43"/>
<text text-anchor="start" x="693.5" y="-446.45" font-family="Helvetica,sans-Serif" font-size="14.00">plays_event_id_fkey</text>
</g>
<!-- plays_f855ead5&#45;&gt;users_f89f9d1e -->
<g id="edge7" class="edge">
<title>plays_f855ead5:w&#45;&gt;users_f89f9d1e:e</title>
<path fill="none" stroke="black" d="M919.56,-285.48C691.15,-284.72 626.84,-258.07 397.5,-300.25 317.63,-314.94 278.06,-299.03 225,-360.5 186.82,-404.73 255.45,-488.41 204.45,-493.28"/>
<polygon fill="black" stroke="black" points="919.5,-285.48 929.49,-290 924.5,-285.49 929.5,-285.5 929.5,-285.5 929.5,-285.5 924.5,-285.49 929.51,-281 919.5,-285.48 919.5,-285.48"/>
<polygon fill="black" stroke="black" points="200.72,-498.45 200.28,-488.46 202.27,-488.37 202.72,-498.36 200.72,-498.45"/>
<polyline fill="none" stroke="black" points="199.5,-493.5 204.49,-493.28"/>
<text text-anchor="start" x="471.62" y="-303.45" font-family="Helvetica,sans-Serif" font-size="14.00">plays_user_id_fkey</text>
</g>
<!-- pool_f22da732 -->
<g id="node8" class="node">
<title>pool_f22da732</title>
<polygon fill="#e9c2f2" stroke="none" points="947,-979 947,-1000 1041,-1000 1041,-979 947,-979"/>
<text text-anchor="start" x="949" y="-985.7" font-family="Helvetica,sans-Serif" font-weight="bold" font-style="italic" font-size="14.00">public.pool</text>
<polygon fill="#e9c2f2" stroke="none" points="1041,-979 1041,-1000 1102,-1000 1102,-979 1041,-979"/>
<text text-anchor="start" x="1058" y="-984.7" font-family="Helvetica,sans-Serif" font-size="14.00">[view]</text>
<text text-anchor="start" x="949" y="-963.7" font-family="Helvetica,sans-Serif" font-size="14.00">e_id</text>
<text text-anchor="start" x="1034.75" y="-963.7" font-family="Helvetica,sans-Serif" font-size="14.00"> </text>
<text text-anchor="start" x="1043" y="-963.7" font-family="Helvetica,sans-Serif" font-size="14.00">uuid</text>
<text text-anchor="start" x="948.75" y="-942.7" font-family="Helvetica,sans-Serif" font-size="14.00">bet_amount</text>
<text text-anchor="start" x="1034.75" y="-942.7" font-family="Helvetica,sans-Serif" font-size="14.00"> </text>
<text text-anchor="start" x="1043" y="-942.7" font-family="Helvetica,sans-Serif" font-size="14.00">numeric</text>
<polygon fill="none" stroke="#888888" points="946,-936 946,-1001 1103,-1001 1103,-936 946,-936"/>
</g>
<!-- session_684991ac -->
<g id="node9" class="node">
<title>session_684991ac</title>
<polygon fill="#e9c2f2" stroke="none" points="434,-228 434,-249 548,-249 548,-228 434,-228"/>
<text text-anchor="start" x="435.88" y="-234.7" font-family="Helvetica,sans-Serif" font-weight="bold" font-style="italic" font-size="14.00">public.session</text>
<polygon fill="#e9c2f2" stroke="none" points="548,-228 548,-249 639,-249 639,-228 548,-228"/>
<text text-anchor="start" x="592" y="-233.7" font-family="Helvetica,sans-Serif" font-size="14.00">[table]</text>
<text text-anchor="start" x="436" y="-212.7" font-family="Helvetica,sans-Serif" font-size="14.00">user_id</text>
<text text-anchor="start" x="516" y="-212.7" font-family="Helvetica,sans-Serif" font-size="14.00"> </text>
<text text-anchor="start" x="549.62" y="-212.7" font-family="Helvetica,sans-Serif" font-size="14.00">uuid not null</text>
<text text-anchor="start" x="436" y="-191.7" font-family="Helvetica,sans-Serif" font-size="14.00">secret</text>
<text text-anchor="start" x="516" y="-191.7" font-family="Helvetica,sans-Serif" font-size="14.00"> </text>
<text text-anchor="start" x="550" y="-191.7" font-family="Helvetica,sans-Serif" font-size="14.00">text not null</text>
<polygon fill="none" stroke="#888888" points="433,-185 433,-250 640,-250 640,-185 433,-185"/>
</g>
<!-- session_684991ac&#45;&gt;users_f89f9d1e -->
<g id="edge8" class="edge">
<title>session_684991ac:w&#45;&gt;users_f89f9d1e:e</title>
<path fill="none" stroke="black" d="M422.74,-217.4C334.9,-215.67 286.22,-192.24 225,-259.25 190.85,-296.62 247.84,-480.68 204.34,-492.87"/>
<polygon fill="black" stroke="black" points="422.5,-217.4 432.46,-222 427.5,-217.45 432.5,-217.5 432.5,-217.5 432.5,-217.5 427.5,-217.45 432.54,-213 422.5,-217.4 422.5,-217.4"/>
<polygon fill="black" stroke="black" points="201.14,-498.33 199.84,-488.41 201.83,-488.15 203.12,-498.07 201.14,-498.33"/>
<polyline fill="none" stroke="black" points="199.5,-493.5 204.46,-492.85"/>
<text text-anchor="start" x="229.88" y="-262.45" font-family="Helvetica,sans-Serif" font-size="14.00">session_user_id_fkey</text>
</g>
<!-- shares_bc1dbb8a -->
<g id="node10" class="node">
<title>shares_bc1dbb8a</title>
<polygon fill="#e9c2f2" stroke="none" points="940,-1112 940,-1133 1048,-1133 1048,-1112 940,-1112"/>
<text text-anchor="start" x="941.88" y="-1118.7" font-family="Helvetica,sans-Serif" font-weight="bold" font-style="italic" font-size="14.00">public.shares</text>
<polygon fill="#e9c2f2" stroke="none" points="1048,-1112 1048,-1133 1109,-1133 1109,-1112 1048,-1112"/>
<text text-anchor="start" x="1065" y="-1117.7" font-family="Helvetica,sans-Serif" font-size="14.00">[view]</text>
<text text-anchor="start" x="942" y="-1096.7" font-family="Helvetica,sans-Serif" font-size="14.00">g_id</text>
<text text-anchor="start" x="1013" y="-1096.7" font-family="Helvetica,sans-Serif" font-size="14.00"> </text>
<text text-anchor="start" x="1050" y="-1096.7" font-family="Helvetica,sans-Serif" font-size="14.00">uuid</text>
<text text-anchor="start" x="942" y="-1075.7" font-family="Helvetica,sans-Serif" font-size="14.00">e_id</text>
<text text-anchor="start" x="1013" y="-1075.7" font-family="Helvetica,sans-Serif" font-size="14.00"> </text>
<text text-anchor="start" x="1050" y="-1075.7" font-family="Helvetica,sans-Serif" font-size="14.00">uuid</text>
<text text-anchor="start" x="942" y="-1054.7" font-family="Helvetica,sans-Serif" font-size="14.00">p_id</text>
<text text-anchor="start" x="1013" y="-1054.7" font-family="Helvetica,sans-Serif" font-size="14.00"> </text>
<text text-anchor="start" x="1050" y="-1054.7" font-family="Helvetica,sans-Serif" font-size="14.00">uuid</text>
<text text-anchor="start" x="942" y="-1033.7" font-family="Helvetica,sans-Serif" font-size="14.00">share</text>
<text text-anchor="start" x="1013" y="-1033.7" font-family="Helvetica,sans-Serif" font-size="14.00"> </text>
<text text-anchor="start" x="1050" y="-1033.7" font-family="Helvetica,sans-Serif" font-size="14.00">numeric</text>
<polygon fill="none" stroke="#888888" points="939,-1027 939,-1134 1110,-1134 1110,-1027 939,-1027"/>
</g>
</g>
</svg>
